<?xml version="1.0" encoding="UTF-8"?>
<svg id="Layer_1" data-name="Layer 1" xmlns="http://www.w3.org/2000/svg" viewBox="0 0 682.23 154.96">
  <defs>
    <style>
      .cls-1 {
        fill: #4c042d;
      }
    </style>
  </defs>
  <path class="cls-1" d="M89.37,2.07c5.07,1.37,13.26,3.32,15.21,7.61,1.56,3.32,.78,10.34,.78,15.21,0,3.31,.98,13.26-1.76,14.04-1.95,.58-4.29-1.95-5.66-2.93-5.07-3.71-10.73-6.44-17.55-7.8-10.73-1.95-20.48,.59-27.5,4.68-13.46,7.8-22.62,22.82-23.21,44.47-.39,11.12,2.54,19.5,6.83,27.11,4.1,7.41,9.36,13.46,16.19,17.55,7.02,4.1,17.75,6.63,27.89,4.49,6.63-1.37,12.29-4.29,17.36-8,1.56-1.17,3.71-3.32,5.66-2.73,2.73,.78,1.76,10.53,1.76,14.24,0,5.85,.58,12.09-.98,15.02-2.15,3.9-9.75,5.66-14.24,7.02-5.27,1.56-11.9,2.93-18.14,2.93-13.65,0-24.38-3.71-33.54-8.58-17.55-9.36-30.62-26.72-36.08-48.37-6.44-25.55,.98-51.49,12.09-67.28C23.06,18.45,33.98,8.89,50.37,3.43,56.02,1.48,62.07,.51,68.5,.12c6.44-.39,14.04,.19,20.87,1.95Z"/>
  <path class="cls-1" d="M141.24,3.82c3.51,0,8.78-.59,10.53,1.37,2.15,2.15,1.37,9.56,1.37,13.07v28.86c0,4.29-.58,11.7,1.56,13.46,2.34,1.76,7.8,1.17,11.9,1.17h25.74c5.27,0,10.53,.39,12.29-1.36,2.15-1.95,1.37-8.78,1.37-13.26V18.25c0-3.9-.58-10.92,1.37-13.07,2.15-2.15,8.39-1.37,13.07-1.37,4.29,0,10.92-.78,13.07,1.37,2.73,2.73,1.37,12.87,1.37,17.16v110.38c0,5.46,1.17,15.6-1.75,17.36-2.34,1.56-8,.98-12.87,.98-5.27,0-11.12,.78-13.07-1.56-1.95-2.34-1.17-10.53-1.17-15.21v-32.76c0-4.88,.98-12.68-1.37-14.82-1.75-1.95-7.8-1.37-11.9-1.37h-26.13c-3.32,0-9.75-.58-11.9,1.17-2.34,2.15-1.56,9.75-1.56,15.02v33.15c0,4.68,1.17,12.68-1.37,15.02-2.15,2.15-8.19,1.37-13.26,1.37-4.68,0-10.73,.97-13.07-1.56-1.95-2.34-1.17-12.48-1.17-17.16V13.57c0-5.85-.19-8.78,4.88-9.56,3.51-.39,7.41-.19,12.09-.19Z"/>
  <path class="cls-1" d="M287.12,4.41h13.46c4.29,0,10.34-.58,12.09,1.17,1.95,2.15,1.17,8.19,1.17,12.48,0,3.9,.78,10.14-1.17,12.29-2.15,2.15-8.58,1.17-13.26,1.17s-11.9-.58-13.65,1.56c-2.15,2.93-1.17,8.78-1.17,14.63,0,4.49-.78,12.29,1.37,14.43,3.32,3.32,20.09-.98,23.4,2.73,1.95,2.34,1.17,9.36,1.17,12.48,0,3.9,.58,10.14-1.37,12.09-3.51,3.51-19.11-.98-23.01,2.34-2.73,2.34-1.56,10.92-1.56,15.21s-.98,13.85,1.76,15.8c4.49,2.92,23.21-1.76,26.91,2.34,1.95,2.34,.98,8.58,.98,12.68s.78,10.14-1.17,12.09c-1.95,1.95-9.17,1.37-13.46,1.37h-29.25c-4.1,0-11.51,.39-13.46-1.17-2.34-2.15-1.56-11.51-1.56-16.97V23.32c0-4.68-.98-14.82,.98-17.36,.98-1.17,2.54-1.37,3.9-1.37,5.85-.78,17.75-.19,26.91-.19Z"/>
  <path class="cls-1" d="M403.93,5.97c1.56,2.54,1.17,7.8,1.17,12.29s.78,10.34-1.56,12.09c-1.56,1.17-4.88,.58-8,.39-20.28-1.37-31.59,12.87-35.69,29.06-5.85,22.62,.97,46.61,14.24,57.53,5.85,4.88,11.31,7.61,20.87,7.22,2.34-.2,6.24-1.56,8.39-.2,2.34,1.17,1.75,7.02,1.75,11.9s.58,10.92-1.17,13.26c-2.34,3.12-9.75,3.32-15.02,2.93-17.55-.78-29.45-7.41-38.81-15.99-11.51-10.73-20.67-28.08-23.01-50.12-2.54-23.99,4.49-43.68,14.43-57.73,9.36-13.46,24.96-25.55,47.39-25.94,3.71-.19,12.87,.2,15.02,3.32Z"/>
  <path class="cls-1" d="M437.08,3.82c3.9,0,9.36-.59,10.92,1.56,1.56,2.15,1.17,8,1.17,13.46v29.25c0,4.1-.78,12.09,1.75,12.68,2.15,.59,5.07-4.1,6.63-6.05,11.12-14.82,21.26-28.86,32.18-43.88,1.95-2.73,3.71-5.66,6.44-6.44,3.71-.98,10.92-.58,16.19-.58,4.88,0,13.85-.98,14.63,1.95,.78,3.12-4.49,7.41-5.66,8.97-14.04,16.77-25.94,31.79-39.59,48.17-2.14,2.34-5.66,6.05-5.66,8.78-.2,3.51,4.29,7.8,6.24,10.34,15.21,20.67,30.23,40.37,45.63,61.43,1.17,1.76,2.73,3.51,2.34,5.46-.98,3.32-9.95,2.15-15.41,2.15-6.24,0-13.26,.78-17.36-.78-2.73-.98-4.68-4.1-6.63-6.83-11.31-15.6-21.84-31.01-33.15-46.81-1.75-2.34-4.68-7.02-6.63-6.63-2.73,.39-1.95,9.75-1.95,13.85v31.59c0,4.68,.78,12.09-1.37,14.24-2.54,2.34-8,1.37-13.07,1.37-4.49,0-10.92,.78-13.07-1.37s-1.37-11.51-1.37-16.97V22.74c0-5.07-.98-14.63,.97-17.16,.98-1.37,2.93-1.37,3.9-1.56,2.14-.19,7.22-.19,11.9-.19Z"/>
  <path class="cls-1" d="M557.99,4.41c3.9,0,8.97-.58,10.92,1.17,2.15,2.34,1.17,11.9,1.17,17.16v109.8c0,5.27,.98,14.82-.97,17.16-2.34,2.54-8,1.56-13.26,1.56-4.49,0-11.51,.59-13.46-1.37-2.15-2.14-1.37-11.9-1.37-17.16V13.77c0-5.46-.19-8.58,4.68-9.17,1.95-.39,7.61-.19,12.29-.19Z"/>
  <path class="cls-1" d="M652.77,71.1V23.32c0-5.07-1.17-15.02,1.17-17.75,1.95-2.15,8.78-1.56,13.26-1.56s11.31-.78,13.46,1.37c2.34,2.34,1.37,12.09,1.37,17.16v110.19c0,5.27,.98,14.63-1.37,16.97-2.14,2.15-7.61,1.17-12.09,1.17s-9.75,.78-12.68-.58c-2.54-.98-3.9-5.07-5.27-8.58-8-20.28-15.8-39.78-24.38-59.87-1.17-3.12-2.14-7.02-5.27-8.78-1.75,2.15-1.17,5.66-1.17,8.78v59.09c0,3.32,.39,7.61-1.37,8.97-2.54,1.76-8.39,.98-13.26,.98s-11.12,.78-13.26-1.17c-2.14-2.34-1.17-11.7-1.17-17.16V23.13c0-5.27-1.17-14.63,.98-17.36,2.15-2.93,9.95-1.76,15.21-1.76,3.71,0,8.39-.39,10.73,.78,2.34,1.37,3.51,5.46,4.88,8.78,7.8,19.5,15.6,38.42,23.6,57.73,1.37,3.12,2.54,6.83,5.46,8.19,1.56-2.15,1.17-5.27,1.17-8.39Z"/>
</svg>