<svg width="61" height="83" viewBox="0 0 61 83" fill="none" xmlns="http://www.w3.org/2000/svg">
<path d="M19.7871 80.4778C20.1937 83.2413 52.8284 62.1815 53.7495 62.2895C55.6871 61.1714 57.3008 59.5577 58.4125 57.6201C59.5306 55.6825 60.1214 53.478 60.1214 51.2418C60.1214 49.7298 60.1214 40.8612 60.1214 39.5715C60.1596 38.0532 59.2193 36.4268 57.8852 35.7026L49.1564 30.6648C47.708 29.8643 45.008 27.6471 44.4744 30.6711C44.2012 35.1626 45.4908 44.692 42.7654 48.5926C40.8596 53.3319 21.9217 62.0227 17.9512 64.8942C19.7554 67.1939 16.9792 79.3661 19.7808 80.4842" fill="url(#paint0_linear_1509_296)"/>
<path d="M2.80541 73.7599L18.4461 82.7937C16.8008 81.8408 15.8732 80.1192 15.8732 78.3403C15.6445 76.5552 16.4323 67.8644 15.2761 66.4287C14.8377 64.8277 3.88539 59.4024 2.5767 58.405C1.61107 57.7824 0.16897 58.6082 0.232498 59.7581V69.3002C0.232498 71.079 1.15366 72.8006 2.80541 73.7536" fill="url(#paint1_linear_1509_296)"/>
<path d="M59.3398 26.6889C59.8417 26.3966 60.1212 25.8757 60.1212 25.3357V14.2435C60.1784 12.4076 57.9866 11.137 56.4302 12.109L44.4805 19.0146C45.4143 19.1861 58.6982 28.1564 59.3398 26.6952" fill="url(#paint2_linear_1509_296)"/>
<path d="M2.57682 49.4682L13.5291 55.7893C13.9993 56.0561 14.5901 56.0815 15.0919 55.7893C15.5938 55.5034 15.8733 54.9761 15.8733 54.4361C16.2037 44.9131 13.5037 33.6749 23.5857 27.9763L55.0832 9.78161C56.6587 8.87315 58.6217 8.84773 60.2227 9.78161C58.5074 9.01926 43.6862 -0.503729 42.0154 0.0553257C40.8147 -1.17714 9.48237 18.5867 7.93863 18.9361C3.34551 21.4455 0.0992019 27.0678 0.226259 32.3026V45.3959C0.188142 46.9905 1.17283 48.6995 2.57046 49.4618" fill="url(#paint3_linear_1509_296)"/>
<defs>
<linearGradient id="paint0_linear_1509_296" x1="36.1023" y1="29.38" x2="44.8051" y2="79.9895" gradientUnits="userSpaceOnUse">
<stop stop-color="#7D2BD1"/>
<stop offset="0.1875" stop-color="#752FD1"/>
<stop offset="1" stop-color="#454AD1"/>
</linearGradient>
<linearGradient id="paint1_linear_1509_296" x1="8.07074" y1="58.3111" x2="12.6226" y2="82.2912" gradientUnits="userSpaceOnUse">
<stop stop-color="#7D2BD1"/>
<stop offset="0.1875" stop-color="#752FD1"/>
<stop offset="1" stop-color="#454AD1"/>
</linearGradient>
<linearGradient id="paint2_linear_1509_296" x1="51.2129" y1="11.8468" x2="53.2397" y2="26.803" gradientUnits="userSpaceOnUse">
<stop stop-color="#7D2BD1"/>
<stop offset="0.1875" stop-color="#752FD1"/>
<stop offset="1" stop-color="#454AD1"/>
</linearGradient>
<linearGradient id="paint3_linear_1509_296" x1="26.0475" y1="0.272489" x2="33.3395" y2="55.8654" gradientUnits="userSpaceOnUse">
<stop stop-color="#7D2BD1"/>
<stop offset="0.1875" stop-color="#752FD1"/>
<stop offset="1" stop-color="#454AD1"/>
</linearGradient>
</defs>
</svg>
