<svg width="240" height="58" viewBox="0 0 240 58" fill="none" xmlns="http://www.w3.org/2000/svg">
<path d="M24.8612 1.04192C22.5256 1.18347 20.3315 1.53736 18.2789 2.24514C12.3336 4.22692 8.37 7.69503 5.25577 12.154C1.22143 17.887 -1.46812 27.3005 0.867544 36.5724C2.84932 44.4287 7.59144 50.728 13.9614 54.1253C17.288 55.8947 21.1808 57.2395 26.1352 57.2395C28.4001 57.2395 30.8066 56.7441 32.7176 56.1779C34.3455 55.6824 37.1058 55.0454 37.8844 53.6299C38.4506 52.5682 38.2382 50.3033 38.2382 48.18C38.2382 46.8352 38.5921 43.2963 37.6012 43.0132C36.8935 42.8008 36.1149 43.5794 35.5487 44.0041C33.7085 45.3488 31.6559 46.4105 29.2495 46.906C25.569 47.6845 21.6762 46.7644 19.1282 45.2781C16.651 43.7917 14.74 41.5976 13.2537 38.9081C11.6966 36.1477 10.6349 33.1043 10.7764 29.0699C10.9888 21.2136 14.3153 15.7637 19.199 12.9326C21.747 11.4463 25.2859 10.5261 29.1787 11.2339C31.6559 11.7294 33.7085 12.7203 35.5487 14.065C36.0441 14.4189 36.8935 15.339 37.6012 15.1267C38.5921 14.8436 38.2382 11.2339 38.2382 10.0307C38.2382 8.26126 38.5214 5.71326 37.9551 4.51003C37.2474 2.95292 34.2747 2.24514 32.4345 1.7497C29.9572 1.1127 27.1969 0.900362 24.8612 1.04192Z" fill="#4C042D"/>
<path d="M48.1178 2.66981C46.2776 2.88214 46.4192 4.08537 46.4192 6.13792V49.1708C46.4192 51.0818 46.136 54.6207 46.9146 55.3993C47.6932 56.1779 50.2412 55.8947 51.7275 55.8947C53.2846 55.8947 55.8326 56.1071 56.5404 55.3993C57.3897 54.4792 56.9651 51.7189 56.9651 50.2325V38.9788C56.9651 37.4925 56.7527 34.5198 57.4605 33.8121C58.3098 32.9627 60.4332 33.3166 62.2734 33.3166C64.0428 33.3166 66.3077 33.0335 67.0863 33.8121C67.8648 34.5198 67.5817 37.2094 67.5817 38.9788V50.2325C67.5817 52.2851 67.2278 54.55 68.0772 55.3993C68.8557 56.1779 71.333 55.8947 72.8901 55.8947C74.3764 55.8947 76.9952 56.1071 77.703 55.3993C78.4815 54.55 78.1984 51.1526 78.1984 49.2416V9.3937C78.1984 7.83659 78.5523 4.01459 77.7737 3.09448C77.066 2.31592 74.5887 2.59903 72.7485 2.59903C70.7667 2.59903 68.7142 2.31592 68.0064 3.09448C67.3694 3.87303 67.5817 6.27948 67.5817 7.83659V18.1702C67.5817 19.4442 67.7941 22.2045 67.0863 22.8415C66.4493 23.4785 63.8305 23.3369 62.2734 23.3369C60.7163 23.3369 58.3098 23.6908 57.4605 22.8415C56.6819 22.0629 56.9651 19.5857 56.9651 18.1702V7.76581C56.9651 6.42103 57.1774 3.73148 56.5404 3.02369C55.6911 2.24514 49.3211 2.45748 48.1178 2.66981Z" fill="#4C042D"/>
<path d="M88.793 2.66981C88.2975 2.66981 87.7313 2.74059 87.3774 3.16525C86.6696 4.08536 87.0235 7.76581 87.0235 9.46448V29.3531V49.3124C87.0235 51.2942 86.7404 54.6915 87.5897 55.4701C88.2975 56.0363 90.9871 55.8947 92.4734 55.8947H103.09C104.647 55.8947 107.266 56.1071 107.974 55.3993C108.682 54.6915 108.398 52.4974 108.398 51.0111C108.398 49.5247 108.752 47.2598 108.045 46.4105C106.7 44.9242 99.9051 46.6228 98.2772 45.5612C97.2863 44.8534 97.6402 41.3145 97.6402 39.8282C97.6402 38.2711 97.2155 35.1568 98.2064 34.3075C99.622 33.1043 105.284 34.7322 106.558 33.4582C107.266 32.7504 107.054 30.4855 107.054 29.0699C107.054 27.9375 107.337 25.3895 106.629 24.5402C105.426 23.1954 99.3389 24.7525 98.1356 23.5493C97.3571 22.7707 97.6402 19.9396 97.6402 18.3117C97.6402 16.1884 97.2863 14.065 98.0649 13.0034C98.7019 12.2248 101.391 12.4371 103.019 12.4371C104.718 12.4371 107.054 12.791 107.832 12.0125C108.54 11.2339 108.257 8.96904 108.257 7.55348C108.257 5.99637 108.54 3.80225 107.832 3.02369C107.195 2.3867 105.001 2.59903 103.444 2.59903H98.5603C95.2337 2.59903 90.9163 2.3867 88.793 2.66981Z" fill="#4C042D"/>
<path d="M136.894 1.96203C128.754 2.10359 123.092 6.49181 119.695 11.3755C116.085 16.4715 113.537 23.62 114.457 32.3257C115.306 40.3236 118.633 46.6228 122.809 50.5156C126.206 53.6299 130.524 56.0363 136.894 56.3194C138.805 56.461 141.494 56.3902 142.344 55.2577C142.981 54.4084 142.768 52.1435 142.768 50.4448C142.768 48.6754 142.981 46.5521 142.131 46.1274C141.353 45.632 139.937 46.1274 139.088 46.1982C135.62 46.3397 133.638 45.3488 131.515 43.5794C126.702 39.6158 124.224 30.9102 126.348 22.6999C127.834 16.8254 131.939 11.6586 139.3 12.154C140.433 12.2248 141.636 12.4371 142.202 12.0125C143.051 11.3755 142.768 9.18137 142.768 7.62426C142.768 5.99637 142.91 4.08536 142.344 3.16525C141.565 2.0328 138.238 1.89125 136.894 1.96203Z" fill="#4C042D"/>
<path d="M160.756 23.1246C159.978 21.8506 160.19 20.0812 160.19 18.4533V7.83659C160.19 6.2087 160.402 3.80225 159.695 3.02369C159.058 2.3867 157.147 2.59903 155.66 2.59903C153.466 2.59903 150.777 2.10359 149.927 3.16525C149.22 4.08536 149.573 7.55348 149.573 9.46448V49.0293C149.573 50.9403 149.22 54.4084 149.998 55.3285C150.706 56.1071 153.112 55.8947 154.953 55.8947C156.722 55.8947 158.987 56.1071 159.695 55.3993C160.473 54.6207 160.19 51.4357 160.19 49.7371V37.4925C160.19 35.5107 159.907 33.3874 160.827 31.9718C161.676 32.5381 162.03 33.5997 162.384 34.5198C164.72 40.6067 166.702 46.6936 168.825 52.8513C169.179 53.8422 169.604 55.1162 170.311 55.5409C171.302 56.1779 173.85 55.8947 175.478 55.8947C177.106 55.8947 179.937 56.1779 180.362 55.187C180.786 54.2669 179.796 52.4266 179.442 51.5065C176.611 44.358 174.133 37.8464 171.444 30.7686C171.019 29.7069 170.241 28.2206 170.311 27.0882C170.311 26.1681 170.878 24.9648 171.231 24.0447C173.709 17.9578 175.832 12.4371 178.238 6.42103C178.663 5.43014 179.442 4.08536 179.088 3.23603C178.663 2.17436 176.115 2.59903 174.558 2.59903C172.576 2.59903 170.594 2.31592 169.533 2.81136C168.33 3.44836 167.622 6.2087 167.126 7.62426C165.428 12.2248 164.012 16.613 162.243 21.0013C161.889 21.7798 161.606 22.8415 160.756 23.1246Z" fill="#4C042D"/>
<path d="M189.046 2.66981C187.276 2.88214 187.347 4.01459 187.347 5.99637V15.976V49.1708C187.347 51.0818 187.064 54.6207 187.843 55.3993C188.55 56.1071 191.098 55.8947 192.726 55.8947C194.637 55.8947 196.69 56.2486 197.539 55.3285C198.247 54.4792 197.893 51.0111 197.893 49.1001V29.2115V9.25215C197.893 7.34115 198.247 3.87303 197.468 3.02369C196.761 2.3867 194.92 2.59903 193.505 2.59903C191.806 2.59903 189.754 2.52825 189.046 2.66981Z" fill="#4C042D"/>
<path d="M228.886 29.8485C227.824 29.3531 227.399 28.0083 226.904 26.8758C224.002 19.8688 221.171 13.0034 218.34 5.92559C217.844 4.72237 217.42 3.23603 216.57 2.74059C215.721 2.31592 214.022 2.45747 212.677 2.45747C210.766 2.45747 207.935 2.03281 207.157 3.09448C206.378 4.08537 206.803 7.4827 206.803 9.3937V49.1001C206.803 51.0819 206.449 54.4792 207.228 55.3285C208.006 56.0363 210.342 55.7532 212.04 55.7532C213.81 55.7532 215.933 56.0363 216.853 55.3993C217.49 54.9039 217.349 53.3467 217.349 52.1435V30.6978C217.349 29.5654 217.136 28.2914 217.773 27.5128C218.906 28.1498 219.26 29.5654 219.684 30.6978C222.799 37.9879 225.63 45.0657 228.532 52.4266C229.027 53.7006 229.523 55.187 230.443 55.5409C231.504 56.0363 233.415 55.7532 235.043 55.7532C236.671 55.7532 238.653 56.1071 239.431 55.3285C240.281 54.4792 239.927 51.0818 239.927 49.1708V9.18137C239.927 7.34115 240.281 3.80225 239.431 2.95292C238.653 2.17436 236.105 2.45747 234.548 2.45747C232.92 2.45747 230.443 2.24514 229.735 3.02369C228.886 4.01459 229.31 7.62426 229.31 9.46448V26.805C229.31 27.9375 229.452 29.0699 228.886 29.8485Z" fill="#4C042D"/>
</svg>
