<svg width="1134" height="1000" viewBox="0 0 1134 1000" fill="none" xmlns="http://www.w3.org/2000/svg">
<path d="M402.182 435.189C402.632 435.954 403.497 437.918 403.897 438.578C499.876 469.862 625.89 425.429 639.557 307.75C588.218 367.414 471.242 366.025 410.755 318.929C393.879 347.964 384.541 401.891 402.182 435.189Z" fill="#555555"/>
<path d="M762.101 407.233C841.819 310.483 836.585 160.954 741.035 69.7959C771.384 98.7461 762.101 226.006 694.99 281.013C694.99 281.013 737.666 299.244 762.101 407.233Z" fill="black"/>
<path d="M661.526 19.4721C668.654 89.1264 629.502 202.993 552.678 220.869C543.65 222.968 535.462 225.267 525.684 227.516C522.87 228.16 519.805 229.015 516.921 229.245L514.921 229.375C505.028 230.089 496.495 229.215 486.427 227.056C476.187 224.787 466.276 221.227 456.933 216.461C447.31 211.571 438.211 205.71 429.779 198.97C436.775 207.505 444.622 215.304 453.199 222.248C462.023 229.394 471.718 235.39 482.053 240.094C484.103 241.014 486.176 241.882 488.272 242.698C468.386 252.813 449.63 265.941 433.443 282.008C424.295 293.289 416.668 305.722 410.758 318.989C395.258 353.891 392.017 393.006 401.56 429.982C402.79 434.76 403.71 438.218 403.895 438.618C186.02 238.86 410.178 -82.3858 661.526 19.4721ZM565.616 101.73C569.551 101.73 573.397 100.563 576.669 98.3779C579.941 96.1924 582.491 93.0861 583.997 89.4517C585.503 85.8173 585.897 81.8181 585.129 77.9598C584.362 74.1016 582.467 70.5576 579.684 67.7759C576.902 64.9943 573.357 63.1 569.497 62.3325C565.638 61.5651 561.637 61.9589 558.002 63.4644C554.366 64.9698 551.259 67.5191 549.073 70.79C546.887 74.0608 545.72 77.9063 545.72 81.8402C545.726 87.1109 547.826 92.1636 551.556 95.8882C555.286 99.6129 560.343 101.705 565.616 101.705V101.73Z" fill="black"/>
<path d="M403.896 438.577C508.874 533.029 674.374 515.423 762.101 407.233C756.227 311.697 685.617 229.574 590.262 225.226C670.18 290.693 610.358 400.247 512.018 438.577C472.897 453.824 438.664 446.978 403.896 438.577Z" fill="black"/>
<path d="M90.4019 660.694H133.401L223.47 908.428H184.541L167.376 861.359H56.427L39.4395 908.428H0.333008L90.4019 660.694ZM70.0524 824.552H153.751L111.813 709.533L70.0524 824.552Z" fill="black"/>
<path d="M404.628 797.479V908.428H367.822V806.503C367.822 798.599 365.876 791.403 361.983 784.915C358.208 778.427 353.076 773.295 346.588 769.52C340.218 765.627 333.022 763.681 325 763.681C317.214 763.681 310.077 765.627 303.588 769.52C297.1 773.295 291.91 778.427 288.017 784.915C284.124 791.403 282.177 798.599 282.177 806.503V908.428H245.371V731.475H282.177V750.232C288.311 742.918 295.861 737.138 304.827 732.891C313.793 728.644 323.466 726.521 333.847 726.521C346.942 726.521 358.857 729.706 369.592 736.076C380.327 742.446 388.821 750.999 395.073 761.734C401.443 772.469 404.628 784.384 404.628 797.479Z" fill="black"/>
<path d="M526.303 768.282H489.143L488.966 908.428H452.16L452.336 768.282H424.201V731.475H452.336L452.16 675.912H488.966L489.143 731.475H526.303V768.282Z" fill="black"/>
<path d="M710.162 797.479V908.428H673.356V806.503C673.356 798.599 671.409 791.403 667.516 784.915C663.741 778.427 658.61 773.295 652.122 769.52C645.751 765.627 638.555 763.681 630.533 763.681C622.747 763.681 615.61 765.627 609.122 769.52C602.634 773.295 597.443 778.427 593.55 784.915C589.657 791.403 587.711 798.599 587.711 806.503V908.428H550.905V642.999H587.711V750.232C593.845 742.918 601.395 737.138 610.361 732.891C619.326 728.644 629 726.521 639.381 726.521C652.475 726.521 664.39 729.706 675.125 736.076C685.86 742.446 694.354 750.999 700.607 761.734C706.977 772.469 710.162 784.384 710.162 797.479Z" fill="black"/>
<path d="M738.405 731.475H775.211V908.428H738.405V731.475ZM757.162 705.817C751.5 705.817 746.781 703.989 743.006 700.332C739.231 696.675 737.344 692.074 737.344 686.529C737.344 681.103 739.231 676.561 743.006 672.904C746.781 669.129 751.441 667.242 756.985 667.242C762.412 667.242 767.013 669.129 770.788 672.904C774.563 676.561 776.45 681.103 776.45 686.529C776.45 692.074 774.563 696.675 770.788 700.332C767.131 703.989 762.589 705.817 757.162 705.817Z" fill="black"/>
<path d="M945.031 731.475H981.837V908.428H944.854L943.438 882.77C938.247 891.853 931.228 899.167 922.381 904.712C913.533 910.257 903.093 913.029 891.06 913.029C878.084 913.029 865.874 910.61 854.431 905.774C842.988 900.819 832.902 893.977 824.172 885.247C815.56 876.518 808.836 866.49 803.999 855.165C799.163 843.722 796.744 831.454 796.744 818.359C796.744 805.736 799.104 793.881 803.822 782.792C808.541 771.585 815.088 761.793 823.464 753.417C831.84 745.042 841.513 738.494 852.484 733.776C863.573 728.939 875.429 726.521 888.052 726.521C900.911 726.521 912.235 729.47 922.027 735.368C931.936 741.149 940.135 748.581 946.623 757.664L945.031 731.475ZM890.175 877.461C900.557 877.461 909.64 874.925 917.426 869.852C925.212 864.662 931.228 857.702 935.475 848.972C939.84 840.242 942.023 830.569 942.023 819.952C942.023 809.217 939.84 799.484 935.475 790.754C931.11 782.025 925.035 775.124 917.249 770.051C909.581 764.86 900.557 762.265 890.175 762.265C879.912 762.265 870.534 764.86 862.04 770.051C853.546 775.242 846.822 782.202 841.867 790.931C836.913 799.661 834.435 809.335 834.435 819.952C834.435 830.687 836.972 840.419 842.044 849.149C847.235 857.761 854.018 864.662 862.394 869.852C870.888 874.925 880.148 877.461 890.175 877.461Z" fill="black"/>
<path d="M1063.15 911.79C1053.84 911.2 1044.75 909.313 1035.9 906.128C1027.06 902.942 1019.27 898.637 1012.55 893.21C1005.94 887.666 1000.99 881.177 997.682 873.745L1029 860.297C1030.54 863.482 1033.19 866.608 1036.97 869.675C1040.86 872.743 1045.4 875.279 1050.59 877.284C1055.78 879.172 1061.21 880.116 1066.87 880.116C1072.42 880.116 1077.55 879.349 1082.27 877.815C1087.1 876.164 1091.05 873.686 1094.12 870.383C1097.19 867.08 1098.72 863.128 1098.72 858.527C1098.72 853.337 1096.95 849.326 1093.41 846.495C1089.99 843.545 1085.69 841.304 1080.5 839.77C1075.31 838.237 1070.11 836.762 1064.92 835.347C1053.36 832.751 1042.75 829.212 1033.07 824.729C1023.52 820.129 1015.91 814.289 1010.25 807.211C1004.58 800.015 1001.75 791.226 1001.75 780.845C1001.75 769.52 1004.82 759.729 1010.95 751.471C1017.09 743.095 1025.11 736.666 1035.02 732.183C1045.05 727.7 1055.72 725.459 1067.05 725.459C1081.2 725.459 1094.18 728.467 1105.98 734.484C1117.77 740.5 1126.8 748.758 1133.05 759.257L1103.85 776.598C1102.08 773.059 1099.43 769.874 1095.89 767.043C1092.35 764.212 1088.34 761.97 1083.86 760.319C1079.38 758.549 1074.72 757.546 1069.88 757.31C1063.86 757.075 1058.26 757.782 1053.07 759.434C1048 760.967 1043.93 763.445 1040.86 766.866C1037.79 770.287 1036.26 774.652 1036.26 779.96C1036.26 785.151 1038.09 789.044 1041.74 791.639C1045.4 794.117 1050 796.122 1055.55 797.656C1061.21 799.189 1066.99 800.9 1072.89 802.787C1083.39 806.09 1093.24 810.16 1102.44 814.997C1111.64 819.716 1119.07 825.555 1124.73 832.515C1130.4 839.475 1133.11 847.969 1132.87 857.997C1132.87 869.086 1129.51 878.818 1122.79 887.194C1116.18 895.569 1107.57 901.94 1096.95 906.305C1086.34 910.669 1075.07 912.498 1063.15 911.79Z" fill="black"/>
<path d="M348.636 985.414V946.878H361.656C363.528 946.878 365.225 947.263 366.748 948.034C368.29 948.786 369.51 949.896 370.409 951.364C371.327 952.814 371.785 954.576 371.785 956.649C371.785 957.824 371.574 958.943 371.152 960.008C370.73 961.072 370.18 961.98 369.501 962.733C368.822 963.467 368.088 963.944 367.299 964.164C368.436 964.458 369.418 964.971 370.244 965.705C371.07 966.421 371.749 967.274 372.281 968.265C372.813 969.238 373.198 970.266 373.437 971.348C373.694 972.431 373.822 973.495 373.822 974.541C373.822 976.707 373.345 978.606 372.391 980.239C371.455 981.872 370.198 983.148 368.62 984.065C367.042 984.964 365.289 985.414 363.363 985.414H348.636ZM352.49 981.973H363.06C364.399 981.973 365.61 981.625 366.693 980.927C367.794 980.23 368.666 979.276 369.308 978.065C369.969 976.853 370.299 975.486 370.299 973.963C370.299 972.605 369.969 971.33 369.308 970.137C368.666 968.926 367.794 967.953 366.693 967.219C365.61 966.467 364.399 966.091 363.06 966.091H352.49V981.973ZM352.49 962.705H361.326C363.142 962.705 364.693 962.182 365.977 961.136C367.28 960.072 367.932 958.567 367.932 956.622C367.932 954.493 367.28 952.915 365.977 951.887C364.693 950.841 363.142 950.318 361.326 950.318H352.49V962.705ZM413.424 946.878H417.966L404.974 967.963V985.414H401.12V967.963L388.155 946.878H392.697L403.047 963.751L413.424 946.878ZM471.63 986.13C469.575 986.13 467.584 985.809 465.657 985.166C463.749 984.524 462.079 983.607 460.647 982.414C459.216 981.221 458.207 979.799 457.62 978.147L461.225 976.798C461.629 977.936 462.363 978.918 463.428 979.744C464.51 980.551 465.767 981.175 467.199 981.615C468.648 982.056 470.126 982.276 471.63 982.276C473.392 982.276 475.034 981.982 476.557 981.395C478.081 980.808 479.31 979.991 480.246 978.945C481.182 977.881 481.65 976.633 481.65 975.202C481.65 973.752 481.163 972.559 480.191 971.624C479.218 970.688 477.961 969.954 476.42 969.421C474.897 968.871 473.3 968.449 471.63 968.155C469.006 967.697 466.648 967.073 464.556 966.284C462.483 965.494 460.84 964.384 459.629 962.953C458.418 961.503 457.812 959.595 457.812 957.227C457.812 955.007 458.455 953.08 459.739 951.447C461.024 949.814 462.712 948.548 464.804 947.648C466.914 946.749 469.19 946.3 471.63 946.3C473.631 946.3 475.585 946.612 477.493 947.236C479.402 947.859 481.081 948.768 482.531 949.961C483.999 951.153 485.054 952.612 485.696 954.337L482.035 955.658C481.631 954.502 480.888 953.521 479.806 952.713C478.741 951.887 477.493 951.264 476.062 950.841C474.631 950.401 473.153 950.181 471.63 950.181C469.887 950.162 468.254 950.456 466.731 951.062C465.226 951.649 464.006 952.475 463.07 953.539C462.134 954.585 461.666 955.814 461.666 957.227C461.666 958.879 462.097 960.154 462.96 961.054C463.84 961.934 465.033 962.595 466.538 963.035C468.043 963.476 469.74 963.87 471.63 964.219C474.089 964.641 476.374 965.302 478.484 966.201C480.595 967.082 482.292 968.265 483.577 969.752C484.861 971.22 485.503 973.037 485.503 975.202C485.503 977.404 484.861 979.331 483.577 980.982C482.292 982.616 480.595 983.882 478.484 984.781C476.392 985.68 474.108 986.13 471.63 986.13ZM520.35 986.13C517.744 986.13 515.294 985.616 513 984.588C510.706 983.542 508.688 982.111 506.944 980.294C505.219 978.459 503.861 976.33 502.871 973.908C501.898 971.486 501.412 968.898 501.412 966.146C501.412 963.393 501.898 960.806 502.871 958.384C503.861 955.961 505.219 953.842 506.944 952.025C508.688 950.19 510.706 948.759 513 947.731C515.294 946.685 517.744 946.162 520.35 946.162C523.469 946.162 526.341 946.887 528.965 948.337C531.589 949.786 533.764 951.713 535.489 954.117L532.076 955.961C530.718 954.145 528.993 952.704 526.901 951.64C524.827 950.557 522.643 950.016 520.35 950.016C518.239 950.016 516.267 950.447 514.431 951.309C512.615 952.154 511.018 953.319 509.642 954.805C508.266 956.292 507.192 958.007 506.421 959.953C505.651 961.898 505.265 963.962 505.265 966.146C505.265 968.366 505.651 970.449 506.421 972.394C507.21 974.339 508.293 976.055 509.669 977.542C511.064 979.028 512.67 980.193 514.487 981.037C516.322 981.863 518.276 982.276 520.35 982.276C522.735 982.276 524.946 981.735 526.983 980.652C529.039 979.551 530.736 978.12 532.076 976.358L535.489 978.202C533.764 980.606 531.589 982.533 528.965 983.983C526.341 985.414 523.469 986.13 520.35 986.13ZM552.178 985.414V946.878H565.253C567.308 946.878 569.161 947.382 570.813 948.392C572.464 949.383 573.776 950.731 574.749 952.438C575.722 954.126 576.208 956.026 576.208 958.136C576.208 960.026 575.823 961.742 575.052 963.283C574.281 964.825 573.226 966.1 571.886 967.109C570.565 968.119 569.069 968.788 567.4 969.119L576.813 985.414H572.354L563.078 969.421H556.031V985.414H552.178ZM556.031 965.568H564.922C566.28 965.568 567.519 965.238 568.638 964.577C569.776 963.898 570.675 962.99 571.336 961.852C572.015 960.696 572.354 959.393 572.354 957.943C572.354 956.493 572.015 955.2 571.336 954.062C570.675 952.906 569.776 951.998 568.638 951.337C567.519 950.658 566.28 950.318 564.922 950.318H556.031V965.568ZM594.639 985.414V946.878H618.091V950.731H598.492V962.843H614.705V966.696H598.492V981.56H618.091V985.414H594.639ZM635.541 985.414V946.878H658.993V950.731H639.394V962.843H655.607V966.696H639.394V981.56H658.993V985.414H635.541ZM676.442 985.414V946.878H680.626L700.968 978.45V946.878H704.822V985.414H700.665L680.296 953.842V985.414H676.442ZM722.452 985.414V946.878H726.305V981.56H744.004V985.414H722.452ZM781.111 946.878H785.653L772.66 967.963V985.414H768.807V967.963L755.842 946.878H760.384L770.733 963.751L781.111 946.878Z" fill="black"/>
</svg>
