<svg width="80" height="80" viewBox="0 0 80 80" fill="none" xmlns="http://www.w3.org/2000/svg">
<g clip-path="url(#clip0_581_559)">
<path d="M3.33325 3.33334L76.6666 76.6667" stroke="white" stroke-width="5" stroke-linecap="round" stroke-linejoin="round"/>
<path d="M55.7334 36.8667C58.4637 38.1992 61.0169 39.8677 63.3334 41.8333" stroke="white" stroke-width="5" stroke-linecap="round" stroke-linejoin="round"/>
<path d="M16.6667 41.8333C21.607 37.7028 27.553 34.954 33.9001 33.8667" stroke="white" stroke-width="5" stroke-linecap="round" stroke-linejoin="round"/>
<path d="M35.7 16.8333C42.8413 16.2579 50.0254 17.1272 56.8234 19.3894C63.6215 21.6516 69.894 25.2603 75.2666 30" stroke="white" stroke-width="5" stroke-linecap="round" stroke-linejoin="round"/>
<path d="M4.7334 30C9.35728 25.9128 14.6591 22.6641 20.4001 20.4" stroke="white" stroke-width="5" stroke-linecap="round" stroke-linejoin="round"/>
<path d="M28.4333 53.7C31.8174 51.2958 35.8656 50.0042 40.0167 50.0042C44.1678 50.0042 48.216 51.2958 51.6 53.7" stroke="white" stroke-width="5" stroke-linecap="round" stroke-linejoin="round"/>
<path d="M40 66.6667H40.0333" stroke="white" stroke-width="5" stroke-linecap="round" stroke-linejoin="round"/>
</g>
<defs>
<clipPath id="clip0_581_559">
<rect width="80" height="80" fill="white"/>
</clipPath>
</defs>
</svg>
