<svg width="110" height="27" viewBox="0 0 110 27" fill="none" xmlns="http://www.w3.org/2000/svg">
<path d="M9.34441 2.54841H13.493L22.1827 26.4495H18.4268L16.7708 21.9083H6.06655L4.42762 26.4495H0.654663L9.34441 2.54841ZM7.38111 18.3573H15.4563L11.4102 7.26034L7.38111 18.3573Z" fill="white"/>
<path d="M39.6606 15.7452V26.4495H36.1096V16.6159C36.1096 15.8533 35.9218 15.1591 35.5462 14.5331C35.182 13.9071 34.6869 13.412 34.061 13.0478C33.4464 12.6722 32.7521 12.4844 31.9782 12.4844C31.227 12.4844 30.5384 12.6722 29.9124 13.0478C29.2864 13.412 28.7857 13.9071 28.4101 14.5331C28.0345 15.1591 27.8467 15.8533 27.8467 16.6159V26.4495H24.2957V9.37729H27.8467V11.1869C28.4385 10.4813 29.1669 9.9236 30.0319 9.51387C30.8969 9.10414 31.8302 8.89927 32.8318 8.89927C34.0951 8.89927 35.2446 9.20657 36.2803 9.82117C37.3161 10.4358 38.1355 11.2609 38.7387 12.2966C39.3533 13.3324 39.6606 14.4819 39.6606 15.7452Z" fill="white"/>
<path d="M51.3997 12.9283H47.8145L47.7974 26.4495H44.2464L44.2635 12.9283H41.549V9.37729H44.2635L44.2464 4.01662H47.7974L47.8145 9.37729H51.3997V12.9283Z" fill="white"/>
<path d="M69.1382 15.7452V26.4495H65.5872V16.6159C65.5872 15.8533 65.3994 15.1591 65.0238 14.5331C64.6596 13.9071 64.1645 13.412 63.5385 13.0478C62.9239 12.6722 62.2297 12.4844 61.4557 12.4844C60.7045 12.4844 60.016 12.6722 59.39 13.0478C58.764 13.412 58.2632 13.9071 57.8876 14.5331C57.512 15.1591 57.3242 15.8533 57.3242 16.6159V26.4495H53.7732V0.841187H57.3242V11.1869C57.9161 10.4813 58.6445 9.9236 59.5095 9.51387C60.3745 9.10414 61.3077 8.89927 62.3093 8.89927C63.5727 8.89927 64.7222 9.20657 65.7579 9.82117C66.7936 10.4358 67.6131 11.2609 68.2163 12.2966C68.8309 13.3324 69.1382 14.4819 69.1382 15.7452Z" fill="white"/>
<path d="M71.8631 9.37729H75.4141V26.4495H71.8631V9.37729ZM73.6727 6.90182C73.1264 6.90182 72.6712 6.72541 72.307 6.37258C71.9428 6.01976 71.7607 5.57588 71.7607 5.04095C71.7607 4.5174 71.9428 4.07922 72.307 3.72639C72.6712 3.36218 73.1207 3.18008 73.6557 3.18008C74.1792 3.18008 74.6231 3.36218 74.9873 3.72639C75.3515 4.07922 75.5336 4.5174 75.5336 5.04095C75.5336 5.57588 75.3515 6.01976 74.9873 6.37258C74.6345 6.72541 74.1963 6.90182 73.6727 6.90182Z" fill="white"/>
<path d="M91.7981 9.37729H95.3491V26.4495H91.781L91.6444 23.974C91.1436 24.8504 90.4665 25.556 89.6128 26.091C88.7592 26.6259 87.752 26.8934 86.5911 26.8934C85.3391 26.8934 84.1611 26.6601 83.0571 26.1934C81.9531 25.7154 80.98 25.0553 80.1378 24.213C79.3069 23.3708 78.6582 22.4034 78.1915 21.3108C77.7249 20.2068 77.4916 19.0231 77.4916 17.7597C77.4916 16.5419 77.7192 15.3981 78.1745 14.3282C78.6297 13.247 79.2614 12.3023 80.0695 11.4942C80.8776 10.6862 81.8108 10.0545 82.8693 9.59923C83.9392 9.13259 85.083 8.89927 86.3008 8.89927C87.5414 8.89927 88.634 9.18381 89.5787 9.75288C90.5347 10.3106 91.3258 11.0276 91.9517 11.904L91.7981 9.37729ZM86.5057 23.4619C87.5073 23.4619 88.3836 23.2172 89.1348 22.7278C89.886 22.227 90.4664 21.5555 90.8762 20.7132C91.2973 19.871 91.5079 18.9377 91.5079 17.9134C91.5079 16.8777 91.2973 15.9387 90.8762 15.0965C90.4551 14.2542 89.8689 13.5884 89.1178 13.099C88.378 12.5982 87.5073 12.3479 86.5057 12.3479C85.5155 12.3479 84.6107 12.5982 83.7912 13.099C82.9718 13.5998 82.323 14.2713 81.845 15.1136C81.367 15.9558 81.128 16.8891 81.128 17.9134C81.128 18.9491 81.3727 19.8881 81.8621 20.7303C82.3628 21.5612 83.0173 22.227 83.8254 22.7278C84.6448 23.2172 85.5383 23.4619 86.5057 23.4619Z" fill="white"/>
<path d="M103.195 26.7739C102.295 26.717 101.419 26.5349 100.565 26.2276C99.7119 25.9203 98.9607 25.5048 98.3119 24.9813C97.6746 24.4464 97.1965 23.8204 96.8779 23.1033L99.8996 21.8059C100.048 22.1132 100.304 22.4148 100.668 22.7107C101.043 23.0066 101.482 23.2513 101.982 23.4448C102.483 23.6269 103.007 23.7179 103.553 23.7179C104.088 23.7179 104.583 23.644 105.038 23.496C105.505 23.3367 105.886 23.0977 106.182 22.779C106.478 22.4603 106.626 22.079 106.626 21.6351C106.626 21.1343 106.455 20.7474 106.114 20.4742C105.784 20.1897 105.368 19.9734 104.868 19.8255C104.367 19.6775 103.866 19.5353 103.365 19.3987C102.25 19.1483 101.226 18.8068 100.292 18.3743C99.3704 17.9305 98.6363 17.3671 98.09 16.6842C97.5437 15.9899 97.2705 15.142 97.2705 14.1404C97.2705 13.0478 97.5665 12.1032 98.1583 11.3064C98.7501 10.4984 99.5241 9.87808 100.48 9.44558C101.448 9.01308 102.478 8.79683 103.57 8.79683C104.936 8.79683 106.188 9.08706 107.326 9.66752C108.464 10.248 109.335 11.0447 109.938 12.0576L107.121 13.7307C106.95 13.3893 106.694 13.082 106.353 12.8088C106.011 12.5356 105.625 12.3194 105.192 12.1601C104.76 11.9893 104.31 11.8926 103.843 11.8698C103.263 11.8471 102.722 11.9154 102.221 12.0747C101.732 12.2227 101.339 12.4617 101.043 12.7917C100.748 13.1218 100.6 13.5429 100.6 14.0551C100.6 14.5559 100.776 14.9314 101.129 15.1818C101.482 15.4209 101.926 15.6143 102.46 15.7623C103.007 15.9103 103.564 16.0753 104.134 16.2574C105.147 16.5761 106.097 16.9687 106.985 17.4354C107.872 17.8906 108.589 18.454 109.136 19.1255C109.682 19.797 109.944 20.6165 109.921 21.5839C109.921 22.6538 109.597 23.5927 108.948 24.4008C108.311 25.2089 107.48 25.8235 106.455 26.2446C105.431 26.6657 104.344 26.8422 103.195 26.7739Z" fill="white"/>
</svg>
