<svg width="1779" height="500" viewBox="0 0 1779 500" fill="none" xmlns="http://www.w3.org/2000/svg">
<path d="M86.4611 435.189C86.911 435.953 87.7759 437.917 88.1758 438.577C184.156 469.861 310.169 425.429 323.836 307.749C272.497 367.414 155.522 366.024 95.0343 318.928C78.1579 347.963 68.8198 401.891 86.4611 435.189Z" fill="#E4C508"/>
<path d="M446.38 407.234C526.099 310.484 520.865 160.955 425.315 69.7969C455.663 98.7471 446.38 226.007 379.269 281.014C379.269 281.014 421.945 299.245 446.38 407.234V407.234Z" fill="url(#paint0_linear_1228_124)"/>
<path d="M345.804 19.4721C352.933 89.1265 313.781 202.993 236.957 220.869C227.929 222.968 219.741 225.267 209.963 227.516C207.148 228.16 204.084 229.015 201.2 229.245L199.2 229.375C189.307 230.089 180.774 229.215 170.706 227.056C160.466 224.787 150.555 221.227 141.212 216.461C131.588 211.571 122.49 205.71 114.058 198.97C121.053 207.505 128.901 215.304 137.478 222.248C146.302 229.394 155.997 235.39 166.332 240.094C168.382 241.014 170.454 241.882 172.551 242.698C152.665 252.813 133.909 265.941 117.722 282.008C108.574 293.289 100.947 305.722 95.0369 318.989V318.989C79.537 353.891 76.2955 393.006 85.8388 429.982C87.0685 434.76 87.9884 438.218 88.1733 438.618C-129.701 238.86 94.457 -82.3858 345.804 19.4721ZM249.894 101.73C253.829 101.73 257.676 100.563 260.948 98.378C264.22 96.1924 266.77 93.0861 268.276 89.4517C269.782 85.8173 270.176 81.8181 269.408 77.9599C268.64 74.1016 266.745 70.5576 263.963 67.7759C261.18 64.9943 257.635 63.1 253.776 62.3325C249.917 61.5651 245.916 61.959 242.281 63.4644C238.645 64.9698 235.538 67.5191 233.352 70.79C231.165 74.0608 229.999 77.9063 229.999 81.8402C230.005 87.111 232.104 92.1636 235.835 95.8883C239.565 99.6129 244.622 101.705 249.894 101.705V101.73Z" fill="url(#paint1_linear_1228_124)"/>
<path d="M88.1754 438.577C193.153 533.029 358.654 515.423 446.38 407.233C440.507 311.697 369.896 229.574 274.541 225.227C354.46 290.693 294.637 400.247 196.298 438.577C157.176 453.825 122.943 446.978 88.1754 438.577Z" fill="url(#paint2_linear_1228_124)"/>
<path d="M274.021 222.894L274.011 222.929L273.976 222.904L273.946 222.889H273.966L274.021 222.894Z" fill="url(#paint3_linear_1228_124)"/>
<path d="M735.346 88.6953H778.345L868.414 336.429H829.485L812.32 289.36H701.371L684.383 336.429H645.277L735.346 88.6953ZM714.996 252.553H798.695L756.757 137.534L714.996 252.553Z" fill="#270035"/>
<path d="M1049.57 225.48V336.429H1012.77V234.504C1012.77 226.6 1010.82 219.404 1006.93 212.916C1003.15 206.428 998.02 201.296 991.532 197.521C985.161 193.628 977.965 191.682 969.944 191.682C962.158 191.682 955.021 193.628 948.532 197.521C942.044 201.296 936.853 206.428 932.96 212.916C929.067 219.404 927.121 226.6 927.121 234.504V336.429H890.315V159.476H927.121V178.233C933.255 170.919 940.805 165.139 949.771 160.892C958.737 156.645 968.41 154.522 978.791 154.522C991.886 154.522 1003.8 157.707 1014.54 164.077C1025.27 170.447 1033.76 179 1040.02 189.735C1046.39 200.47 1049.57 212.385 1049.57 225.48Z" fill="#270035"/>
<path d="M1171.25 196.282H1134.09L1133.91 336.429H1097.1L1097.28 196.282H1069.14V159.476H1097.28L1097.1 103.913H1133.91L1134.09 159.476H1171.25V196.282Z" fill="#270035"/>
<path d="M1355.11 225.48V336.429H1318.3V234.504C1318.3 226.6 1316.35 219.404 1312.46 212.916C1308.69 206.428 1303.55 201.296 1297.07 197.521C1290.7 193.628 1283.5 191.682 1275.48 191.682C1267.69 191.682 1260.55 193.628 1254.07 197.521C1247.58 201.296 1242.39 206.428 1238.49 212.916C1234.6 219.404 1232.65 226.6 1232.65 234.504V336.429H1195.85V71H1232.65V178.233C1238.79 170.919 1246.34 165.139 1255.3 160.892C1264.27 156.645 1273.94 154.522 1284.32 154.522C1297.42 154.522 1309.33 157.707 1320.07 164.077C1330.8 170.447 1339.3 179 1345.55 189.735C1351.92 200.47 1355.11 212.385 1355.11 225.48Z" fill="#270035"/>
<path d="M1383.35 159.476H1420.16V336.429H1383.35V159.476ZM1402.11 133.818C1396.44 133.818 1391.72 131.99 1387.95 128.333C1384.17 124.676 1382.29 120.075 1382.29 114.53C1382.29 109.104 1384.17 104.562 1387.95 100.905C1391.72 97.13 1396.38 95.2425 1401.93 95.2425C1407.36 95.2425 1411.96 97.13 1415.73 100.905C1419.51 104.562 1421.39 109.104 1421.39 114.53C1421.39 120.075 1419.51 124.676 1415.73 128.333C1412.07 131.99 1407.53 133.818 1402.11 133.818Z" fill="#270035"/>
<path d="M1589.97 159.476H1626.78V336.429H1589.8L1588.38 310.771C1583.19 319.854 1576.17 327.168 1567.32 332.713C1558.48 338.257 1548.04 341.03 1536 341.03C1523.03 341.03 1510.82 338.611 1499.37 333.775C1487.93 328.82 1477.85 321.978 1469.12 313.248C1460.5 304.519 1453.78 294.491 1448.94 283.166C1444.11 271.723 1441.69 259.455 1441.69 246.36C1441.69 233.737 1444.05 221.882 1448.77 210.793C1453.49 199.586 1460.03 189.794 1468.41 181.418C1476.78 173.043 1486.46 166.495 1497.43 161.777C1508.52 156.94 1520.37 154.522 1533 154.522C1545.85 154.522 1557.18 157.471 1566.97 163.369C1576.88 169.15 1585.08 176.582 1591.57 185.665L1589.97 159.476ZM1535.12 305.462C1545.5 305.462 1554.58 302.926 1562.37 297.853C1570.16 292.663 1576.17 285.703 1580.42 276.973C1584.78 268.243 1586.97 258.57 1586.97 247.953C1586.97 237.218 1584.78 227.485 1580.42 218.755C1576.05 210.026 1569.98 203.125 1562.19 198.052C1554.53 192.861 1545.5 190.266 1535.12 190.266C1524.86 190.266 1515.48 192.861 1506.98 198.052C1498.49 203.243 1491.77 210.203 1486.81 218.932C1481.86 227.662 1479.38 237.336 1479.38 247.953C1479.38 258.688 1481.92 268.42 1486.99 277.15C1492.18 285.762 1498.96 292.663 1507.34 297.853C1515.83 302.926 1525.09 305.462 1535.12 305.462Z" fill="#270035"/>
<path d="M1708.1 339.791C1698.78 339.201 1689.7 337.314 1680.85 334.129C1672 330.943 1664.21 326.638 1657.49 321.211C1650.88 315.667 1645.93 309.178 1642.63 301.746L1673.95 288.298C1675.48 291.483 1678.13 294.609 1681.91 297.676C1685.8 300.744 1690.34 303.28 1695.54 305.285C1700.73 307.173 1706.15 308.117 1711.81 308.117C1717.36 308.117 1722.49 307.35 1727.21 305.816C1732.05 304.165 1736 301.687 1739.07 298.384C1742.13 295.081 1743.67 291.129 1743.67 286.528C1743.67 281.338 1741.9 277.327 1738.36 274.496C1734.94 271.546 1730.63 269.305 1725.44 267.771C1720.25 266.238 1715.06 264.763 1709.87 263.348C1698.31 260.752 1687.69 257.213 1678.02 252.73C1668.46 248.13 1660.85 242.29 1655.19 235.212C1649.53 228.016 1646.7 219.227 1646.7 208.846C1646.7 197.521 1649.76 187.73 1655.9 179.472C1662.03 171.096 1670.05 164.667 1679.96 160.184C1689.99 155.701 1700.67 153.46 1711.99 153.46C1726.15 153.46 1739.12 156.468 1750.92 162.485C1762.72 168.501 1771.74 176.759 1778 187.258L1748.8 204.599C1747.03 201.06 1744.37 197.875 1740.83 195.044C1737.3 192.213 1733.28 189.971 1728.8 188.32C1724.32 186.55 1719.66 185.547 1714.82 185.311C1708.81 185.075 1703.2 185.783 1698.01 187.435C1692.94 188.968 1688.87 191.446 1685.8 194.867C1682.74 198.288 1681.2 202.653 1681.2 207.961C1681.2 213.152 1683.03 217.045 1686.69 219.64C1690.34 222.118 1694.95 224.123 1700.49 225.657C1706.15 227.19 1711.93 228.901 1717.83 230.788C1728.33 234.091 1738.18 238.161 1747.38 242.998C1756.58 247.717 1764.02 253.556 1769.68 260.516C1775.34 267.476 1778.05 275.97 1777.82 285.997C1777.82 297.087 1774.46 306.819 1767.73 315.195C1761.13 323.57 1752.51 329.941 1741.9 334.306C1731.28 338.67 1720.01 340.499 1708.1 339.791Z" fill="#270035"/>
<path d="M1338.58 413.415V374.879H1351.6C1353.47 374.879 1355.17 375.264 1356.69 376.035C1358.23 376.787 1359.45 377.897 1360.35 379.365C1361.27 380.815 1361.73 382.577 1361.73 384.65C1361.73 385.825 1361.52 386.944 1361.1 388.009C1360.67 389.073 1360.12 389.981 1359.44 390.734C1358.77 391.468 1358.03 391.945 1357.24 392.165C1358.38 392.459 1359.36 392.972 1360.19 393.706C1361.01 394.422 1361.69 395.275 1362.22 396.266C1362.76 397.239 1363.14 398.267 1363.38 399.349C1363.64 400.432 1363.77 401.496 1363.77 402.542C1363.77 404.708 1363.29 406.607 1362.33 408.24C1361.4 409.873 1360.14 411.149 1358.56 412.066C1356.99 412.965 1355.23 413.415 1353.31 413.415H1338.58ZM1342.43 409.974H1353C1354.34 409.974 1355.55 409.626 1356.64 408.928C1357.74 408.231 1358.61 407.277 1359.25 406.066C1359.91 404.854 1360.24 403.487 1360.24 401.964C1360.24 400.606 1359.91 399.331 1359.25 398.138C1358.61 396.927 1357.74 395.954 1356.64 395.22C1355.55 394.468 1354.34 394.092 1353 394.092H1342.43V409.974ZM1342.43 390.706H1351.27C1353.09 390.706 1354.64 390.183 1355.92 389.137C1357.22 388.073 1357.88 386.568 1357.88 384.623C1357.88 382.494 1357.22 380.916 1355.92 379.888C1354.64 378.842 1353.09 378.319 1351.27 378.319H1342.43V390.706ZM1403.37 374.879H1407.91L1394.92 395.964V413.415H1391.06V395.964L1378.1 374.879H1382.64L1392.99 391.752L1403.37 374.879ZM1461.57 414.131C1459.52 414.131 1457.53 413.81 1455.6 413.167C1453.69 412.525 1452.02 411.608 1450.59 410.415C1449.16 409.222 1448.15 407.8 1447.56 406.148L1451.17 404.799C1451.57 405.937 1452.31 406.919 1453.37 407.745C1454.45 408.552 1455.71 409.176 1457.14 409.616C1458.59 410.057 1460.07 410.277 1461.57 410.277C1463.34 410.277 1464.98 409.983 1466.5 409.396C1468.02 408.809 1469.25 407.992 1470.19 406.946C1471.13 405.882 1471.59 404.634 1471.59 403.203C1471.59 401.753 1471.11 400.56 1470.13 399.625C1469.16 398.689 1467.91 397.955 1466.36 397.422C1464.84 396.872 1463.24 396.45 1461.57 396.156C1458.95 395.697 1456.59 395.074 1454.5 394.284C1452.43 393.495 1450.78 392.385 1449.57 390.954C1448.36 389.504 1447.76 387.596 1447.76 385.228C1447.76 383.008 1448.4 381.081 1449.68 379.448C1450.97 377.815 1452.66 376.549 1454.75 375.649C1456.86 374.75 1459.13 374.301 1461.57 374.301C1463.57 374.301 1465.53 374.613 1467.44 375.237C1469.35 375.86 1471.02 376.769 1472.47 377.962C1473.94 379.154 1475 380.613 1475.64 382.338L1471.98 383.659C1471.58 382.503 1470.83 381.522 1469.75 380.714C1468.69 379.888 1467.44 379.264 1466.01 378.842C1464.57 378.402 1463.1 378.182 1461.57 378.182C1459.83 378.163 1458.2 378.457 1456.67 379.063C1455.17 379.65 1453.95 380.476 1453.01 381.54C1452.08 382.586 1451.61 383.815 1451.61 385.228C1451.61 386.88 1452.04 388.155 1452.9 389.055C1453.78 389.935 1454.98 390.596 1456.48 391.036C1457.99 391.477 1459.68 391.871 1461.57 392.22C1464.03 392.642 1466.32 393.303 1468.43 394.202C1470.54 395.083 1472.24 396.266 1473.52 397.753C1474.8 399.221 1475.45 401.038 1475.45 403.203C1475.45 405.405 1474.8 407.332 1473.52 408.983C1472.24 410.617 1470.54 411.883 1468.43 412.782C1466.34 413.681 1464.05 414.131 1461.57 414.131ZM1510.29 414.131C1507.69 414.131 1505.24 413.617 1502.94 412.589C1500.65 411.543 1498.63 410.112 1496.89 408.295C1495.16 406.46 1493.81 404.331 1492.81 401.909C1491.84 399.487 1491.36 396.899 1491.36 394.147C1491.36 391.394 1491.84 388.807 1492.81 386.385C1493.81 383.962 1495.16 381.843 1496.89 380.026C1498.63 378.191 1500.65 376.76 1502.94 375.732C1505.24 374.686 1507.69 374.163 1510.29 374.163C1513.41 374.163 1516.28 374.888 1518.91 376.338C1521.53 377.787 1523.71 379.714 1525.43 382.118L1522.02 383.962C1520.66 382.146 1518.94 380.705 1516.84 379.641C1514.77 378.558 1512.59 378.017 1510.29 378.017C1508.18 378.017 1506.21 378.448 1504.38 379.31C1502.56 380.154 1500.96 381.32 1499.59 382.806C1498.21 384.293 1497.14 386.008 1496.37 387.954C1495.59 389.899 1495.21 391.963 1495.21 394.147C1495.21 396.367 1495.59 398.45 1496.37 400.395C1497.15 402.34 1498.24 404.056 1499.61 405.543C1501.01 407.029 1502.61 408.194 1504.43 409.038C1506.27 409.864 1508.22 410.277 1510.29 410.277C1512.68 410.277 1514.89 409.736 1516.93 408.653C1518.98 407.552 1520.68 406.121 1522.02 404.359L1525.43 406.203C1523.71 408.607 1521.53 410.534 1518.91 411.984C1516.28 413.415 1513.41 414.131 1510.29 414.131ZM1542.12 413.415V374.879H1555.2C1557.25 374.879 1559.11 375.383 1560.76 376.393C1562.41 377.384 1563.72 378.732 1564.69 380.439C1565.67 382.127 1566.15 384.026 1566.15 386.137C1566.15 388.027 1565.77 389.743 1565 391.284C1564.22 392.826 1563.17 394.101 1561.83 395.11C1560.51 396.12 1559.01 396.789 1557.34 397.12L1566.76 413.415H1562.3L1553.02 397.422H1545.98V413.415H1542.12ZM1545.98 393.569H1554.87C1556.22 393.569 1557.46 393.239 1558.58 392.578C1559.72 391.899 1560.62 390.991 1561.28 389.853C1561.96 388.697 1562.3 387.394 1562.3 385.944C1562.3 384.494 1561.96 383.201 1561.28 382.063C1560.62 380.907 1559.72 379.999 1558.58 379.338C1557.46 378.659 1556.22 378.319 1554.87 378.319H1545.98V393.569ZM1584.58 413.415V374.879H1608.03V378.732H1588.44V390.844H1604.65V394.697H1588.44V409.561H1608.03V413.415H1584.58ZM1625.48 413.415V374.879H1648.94V378.732H1629.34V390.844H1645.55V394.697H1629.34V409.561H1648.94V413.415H1625.48ZM1666.39 413.415V374.879H1670.57L1690.91 406.451V374.879H1694.77V413.415H1690.61L1670.24 381.843V413.415H1666.39ZM1712.4 413.415V374.879H1716.25V409.561H1733.95V413.415H1712.4ZM1771.05 374.879H1775.6L1762.6 395.964V413.415H1758.75V395.964L1745.79 374.879H1750.33L1760.68 391.752L1771.05 374.879Z" fill="#270035"/>
<defs>
<linearGradient id="paint0_linear_1228_124" x1="472.06" y1="83.4095" x2="319.74" y2="173.029" gradientUnits="userSpaceOnUse">
<stop stop-color="#FFF963"/>
<stop offset="1" stop-color="#FFD800"/>
</linearGradient>
<linearGradient id="paint1_linear_1228_124" x1="262.193" y1="17.6943" x2="-142.275" y2="323.515" gradientUnits="userSpaceOnUse">
<stop stop-color="#FFF963"/>
<stop offset="1" stop-color="#FFD800"/>
</linearGradient>
<linearGradient id="paint2_linear_1228_124" x1="359.123" y1="236.311" x2="325.866" y2="567.064" gradientUnits="userSpaceOnUse">
<stop stop-color="#FFF963"/>
<stop offset="1" stop-color="#FFD800"/>
</linearGradient>
<linearGradient id="paint3_linear_1228_124" x1="273.946" y1="222.909" x2="274.031" y2="222.909" gradientUnits="userSpaceOnUse">
<stop stop-color="#71B522"/>
<stop offset="1" stop-color="#E0DE27"/>
</linearGradient>
</defs>
</svg>
