<svg width="21" height="20" viewBox="0 0 21 20" fill="none" xmlns="http://www.w3.org/2000/svg">
<path d="M10.3132 2.2394C12.9069 2.2394 13.214 2.24906 14.2387 2.29548C14.8547 2.30297 15.4649 2.41538 16.0427 2.62783C16.4618 2.78841 16.8423 3.0344 17.1599 3.34997C17.4775 3.66554 17.725 4.04369 17.8866 4.46008C18.1004 5.03427 18.2135 5.64063 18.2211 6.25281C18.2673 7.27098 18.2775 7.57621 18.2775 10.1536C18.2775 12.731 18.2678 13.0362 18.2211 14.0544C18.2135 14.6666 18.1004 15.2729 17.8866 15.8471C17.725 16.2635 17.4775 16.6416 17.1599 16.9572C16.8423 17.2728 16.4618 17.5188 16.0427 17.6794C15.4649 17.8918 14.8547 18.0042 14.2387 18.0117C13.2145 18.0577 12.9073 18.0678 10.3132 18.0678C7.71899 18.0678 7.41183 18.0581 6.38767 18.0117C5.77161 18.0042 5.16141 17.8918 4.58359 17.6794C4.16456 17.5188 3.78401 17.2728 3.46644 16.9572C3.14887 16.6416 2.90132 16.2635 2.73972 15.8471C2.52593 15.2729 2.41281 14.6666 2.40527 14.0544C2.35901 13.0362 2.34884 12.731 2.34884 10.1536C2.34884 7.57621 2.35855 7.27098 2.40527 6.25281C2.41281 5.64063 2.52593 5.03427 2.73972 4.46008C2.90132 4.04369 3.14887 3.66554 3.46644 3.34997C3.78401 3.0344 4.16456 2.78841 4.58359 2.62783C5.16141 2.41538 5.77161 2.30297 6.38767 2.29548C7.4123 2.24952 7.71945 2.2394 10.3132 2.2394ZM10.3132 0.5C7.67643 0.5 7.3443 0.511032 6.3081 0.557919C5.50184 0.573855 4.70413 0.725553 3.94892 1.00656C3.30107 1.24911 2.71428 1.62922 2.22949 2.12035C1.7348 2.60226 1.35196 3.18568 1.10772 3.82987C0.824933 4.58033 0.672274 5.37302 0.656238 6.1742C0.609979 7.20295 0.598877 7.533 0.598877 10.1531C0.598877 12.7733 0.609979 13.1033 0.657163 14.133C0.6732 14.9342 0.825859 15.7269 1.10865 16.4773C1.35262 17.1214 1.73514 17.7048 2.22949 18.1868C2.71454 18.6781 3.30166 19.0582 3.94984 19.3006C4.70506 19.5816 5.50277 19.7333 6.30903 19.7493C7.34522 19.7952 7.67597 19.8072 10.3141 19.8072C12.9522 19.8072 13.283 19.7962 14.3192 19.7493C15.1254 19.7333 15.9231 19.5816 16.6783 19.3006C17.3235 19.0521 17.9093 18.6726 18.3983 18.1863C18.8874 17.7 19.269 17.1176 19.5186 16.4764C19.8014 15.7259 19.9541 14.9333 19.9701 14.1321C20.0164 13.1033 20.0275 12.7733 20.0275 10.1531C20.0275 7.533 20.0164 7.20295 19.9692 6.17329C19.9531 5.3721 19.8005 4.57941 19.5177 3.82895C19.2737 3.18485 18.8912 2.60143 18.3968 2.11943C17.9118 1.62819 17.3247 1.24808 16.6765 1.00564C15.9213 0.724633 15.1236 0.572935 14.3173 0.556999C13.282 0.511032 12.9499 0.5 10.3132 0.5Z" fill="white"/>
<path d="M10.3115 5.19629C9.32488 5.19629 8.3604 5.48702 7.54005 6.03171C6.71969 6.57641 6.0803 7.3506 5.70273 8.2564C5.32516 9.16219 5.22637 10.1589 5.41885 11.1205C5.61134 12.0821 6.08645 12.9653 6.7841 13.6586C7.48176 14.3519 8.37063 14.824 9.33831 15.0153C10.306 15.2065 11.309 15.1084 12.2205 14.7332C13.1321 14.358 13.9112 13.7226 14.4593 12.9074C15.0075 12.0922 15.3 11.1338 15.3 10.1534C15.3 8.8387 14.7745 7.57783 13.8389 6.64819C12.9034 5.71856 11.6346 5.19629 10.3115 5.19629ZM10.3115 13.3711C9.67108 13.3711 9.04503 13.1824 8.51253 12.8288C7.98003 12.4753 7.56499 11.9727 7.31991 11.3848C7.07482 10.7968 7.0107 10.1498 7.13564 9.52566C7.26058 8.90148 7.56898 8.32814 8.02184 7.87814C8.4747 7.42813 9.05167 7.12168 9.6798 6.99752C10.3079 6.87336 10.959 6.93708 11.5507 7.18063C12.1424 7.42417 12.6481 7.83659 13.0039 8.36574C13.3597 8.89489 13.5496 9.517 13.5496 10.1534C13.5496 11.0068 13.2085 11.8252 12.6012 12.4287C11.9939 13.0321 11.1703 13.3711 10.3115 13.3711Z" fill="white"/>
<path d="M15.4985 6.15855C16.1423 6.15855 16.6642 5.63993 16.6642 5.00017C16.6642 4.36042 16.1423 3.8418 15.4985 3.8418C14.8547 3.8418 14.3328 4.36042 14.3328 5.00017C14.3328 5.63993 14.8547 6.15855 15.4985 6.15855Z" fill="white"/>
</svg>
