<svg width="50" height="48" viewBox="0 0 50 48" fill="none" xmlns="http://www.w3.org/2000/svg">
<path d="M8.57456 41.7782C8.61917 41.8516 8.70494 42.0402 8.7446 42.1035C18.2629 45.1068 30.7597 40.8413 32.1151 29.544C27.0238 35.2718 15.4233 35.1384 9.42476 30.6172C7.75112 33.4046 6.82507 38.5816 8.57456 41.7782Z" fill="#FFDD0F"/>
<path d="M44.2675 39.0945C52.1732 29.8064 51.6541 15.4517 42.1784 6.7005C45.1881 9.47972 44.2675 21.6967 37.6121 26.9773C37.6121 26.9773 41.8443 28.7275 44.2675 39.0945Z" fill="url(#paint0_linear_140_2931)"/>
<path d="M34.2934 1.86932C35.0004 8.55614 31.1177 19.4873 23.499 21.2034C22.6037 21.4049 21.7917 21.6256 20.822 21.8415C20.5429 21.9034 20.239 21.9854 19.953 22.0075L19.7547 22.02C18.7736 22.0886 17.9273 22.0046 16.9289 21.7974C15.9133 21.5796 14.9305 21.2378 14.004 20.7803C13.0496 20.3108 12.1473 19.7482 11.3111 19.1011C12.0048 19.9205 12.783 20.6692 13.6337 21.3358C14.5087 22.0218 15.4702 22.5975 16.4951 23.049C16.6984 23.1373 16.9039 23.2206 17.1118 23.299C15.1397 24.27 13.2797 25.5303 11.6745 27.0728C10.7672 28.1557 10.0108 29.3493 9.42477 30.6229C7.88764 33.9735 7.56618 37.7286 8.51259 41.2783C8.63455 41.7369 8.72577 42.0689 8.74411 42.1073C-12.8625 22.9305 9.36726 -7.90904 34.2934 1.86932ZM24.782 9.76608C25.1723 9.76608 25.5537 9.65409 25.8782 9.44428C26.2027 9.23447 26.4556 8.93626 26.6049 8.58736C26.7542 8.23846 26.7933 7.85454 26.7172 7.48415C26.6411 7.11375 26.4531 6.77353 26.1772 6.50649C25.9013 6.23945 25.5497 6.0576 25.167 5.98392C24.7842 5.91025 24.3875 5.94806 24.027 6.09258C23.6664 6.2371 23.3583 6.48183 23.1415 6.79584C22.9247 7.10984 22.8089 7.47901 22.8089 7.85666C22.8096 8.36265 23.0178 8.8477 23.3877 9.20527C23.7577 9.56284 24.2592 9.76368 24.782 9.76368V9.76608Z" fill="url(#paint1_linear_140_2931)"/>
<path d="M8.74432 42.1035C19.155 51.1708 35.5677 49.4806 44.2676 39.0944C43.6851 29.923 36.6826 22.0392 27.2263 21.6218C35.1518 27.9066 29.2192 38.4237 19.4668 42.1035C15.5871 43.5672 12.1922 42.9099 8.74432 42.1035Z" fill="url(#paint2_linear_140_2931)"/>
<path d="M27.1743 21.3978L27.1733 21.4011L27.17 21.3987L27.1671 21.3973H27.169L27.1743 21.3978Z" fill="url(#paint3_linear_140_2931)"/>
<defs>
<linearGradient id="paint0_linear_140_2931" x1="46.8142" y1="8.00731" x2="31.9649" y2="17.0325" gradientUnits="userSpaceOnUse">
<stop stop-color="#FFF963"/>
<stop offset="1" stop-color="#FFD800"/>
</linearGradient>
<linearGradient id="paint1_linear_140_2931" x1="26.0017" y1="1.69866" x2="-13.1533" y2="32.2816" gradientUnits="userSpaceOnUse">
<stop stop-color="#FFF963"/>
<stop offset="1" stop-color="#FFD800"/>
</linearGradient>
<linearGradient id="paint2_linear_140_2931" x1="35.6142" y1="22.6859" x2="32.5217" y2="54.4581" gradientUnits="userSpaceOnUse">
<stop stop-color="#FFF963"/>
<stop offset="1" stop-color="#FFD800"/>
</linearGradient>
<linearGradient id="paint3_linear_140_2931" x1="27.1671" y1="21.3992" x2="27.1752" y2="21.3992" gradientUnits="userSpaceOnUse">
<stop stop-color="#71B522"/>
<stop offset="1" stop-color="#E0DE27"/>
</linearGradient>
</defs>
</svg>
