<svg width="112" height="30" viewBox="0 0 112 30" fill="none" xmlns="http://www.w3.org/2000/svg">
<path d="M5.35918 26.1114C5.38706 26.1573 5.44067 26.2751 5.46545 26.3147C11.4144 28.1918 19.2249 25.5258 20.072 18.465C16.8899 22.0449 9.63964 21.9615 5.89056 19.1358C4.84453 20.8779 4.26574 24.1135 5.35918 26.1114Z" fill="#FFDD0F"/>
<path d="M27.6672 24.4341C32.6083 18.629 32.2839 9.65731 26.3615 4.18781C28.2426 5.92482 27.6672 13.5604 23.5076 16.8608C23.5076 16.8608 26.1527 17.9547 27.6672 24.4341Z" fill="url(#paint0_linear_179_285)"/>
<path d="M21.4333 1.16832C21.8752 5.34759 19.4485 12.1796 14.6868 13.2521C14.1273 13.3781 13.6197 13.516 13.0137 13.6509C12.8392 13.6896 12.6493 13.7409 12.4705 13.7547L12.3466 13.7625C11.7334 13.8054 11.2045 13.7529 10.5805 13.6234C9.94578 13.4872 9.3315 13.2736 8.75243 12.9877C8.15593 12.6943 7.59198 12.3426 7.06937 11.9382C7.50296 12.4503 7.98934 12.9183 8.52098 13.3349C9.06788 13.7636 9.66882 14.1234 10.3094 14.4057C10.4364 14.4608 10.5649 14.5129 10.6948 14.5619C9.46228 15.1688 8.29975 15.9565 7.29648 16.9205C6.72944 17.5973 6.25671 18.3433 5.89042 19.1393C4.92972 21.2334 4.7288 23.5804 5.32031 25.7989C5.39653 26.0856 5.45354 26.2931 5.46501 26.3171C-8.03915 14.3316 5.85448 -4.94315 21.4333 1.16832ZM15.4887 6.1038C15.7326 6.1038 15.971 6.03381 16.1738 5.90268C16.3766 5.77155 16.5347 5.58516 16.628 5.3671C16.7213 5.14904 16.7458 4.90909 16.6982 4.67759C16.6506 4.4461 16.5331 4.23346 16.3607 4.06656C16.1882 3.89966 15.9685 3.786 15.7293 3.73995C15.4901 3.6939 15.2421 3.71754 15.0168 3.80786C14.7915 3.89819 14.5989 4.05115 14.4634 4.2474C14.3279 4.44365 14.2555 4.67438 14.2555 4.91041C14.2559 5.22666 14.386 5.52982 14.6173 5.7533C14.8485 5.97678 15.1619 6.1023 15.4887 6.1023V6.1038Z" fill="url(#paint1_linear_179_285)"/>
<path d="M5.4652 26.3147C11.9719 31.9818 22.2298 30.9254 27.6672 24.434C27.3032 18.7019 22.9267 13.7745 17.0164 13.5136C21.9699 17.4416 18.262 24.0148 12.1668 26.3147C9.74195 27.2295 7.62015 26.8187 5.4652 26.3147Z" fill="url(#paint2_linear_179_285)"/>
<path d="M16.984 13.3736L16.9834 13.3757L16.9813 13.3742L16.9795 13.3733H16.9807L16.984 13.3736Z" fill="url(#paint3_linear_179_285)"/>
<path d="M48.9653 9.09277H51.5581L56.9892 24.031H54.6418L53.6068 21.1927H46.9166L45.8923 24.031H43.5342L48.9653 9.09277ZM47.7382 18.9733H52.7852L50.2564 12.0377L47.7382 18.9733Z" fill="white"/>
<path d="M67.9129 17.3408V24.031H65.6935V17.885C65.6935 17.4084 65.5762 16.9744 65.3414 16.5832C65.1138 16.192 64.8044 15.8825 64.4131 15.6549C64.029 15.4202 63.5951 15.3028 63.1114 15.3028C62.6419 15.3028 62.2115 15.4202 61.8203 15.6549C61.429 15.8825 61.116 16.192 60.8813 16.5832C60.6466 16.9744 60.5292 17.4084 60.5292 17.885V24.031H58.3098V13.3608H60.5292V14.4919C60.8991 14.0508 61.3543 13.7023 61.895 13.4462C62.4356 13.1901 63.0189 13.0621 63.6449 13.0621C64.4345 13.0621 65.1529 13.2541 65.8002 13.6382C66.4476 14.0224 66.9597 14.5381 67.3367 15.1854C67.7209 15.8327 67.9129 16.5512 67.9129 17.3408Z" fill="white"/>
<path d="M75.2498 15.5802H73.0091L72.9984 24.031H70.779L70.7897 15.5802H69.0931V13.3608H70.7897L70.779 10.0104H72.9984L73.0091 13.3608H75.2498V15.5802Z" fill="white"/>
<path d="M86.3364 17.3408V24.031H84.117V17.885C84.117 17.4084 83.9996 16.9744 83.7649 16.5832C83.5373 16.192 83.2278 15.8825 82.8366 15.6549C82.4525 15.4202 82.0185 15.3028 81.5348 15.3028C81.0653 15.3028 80.635 15.4202 80.2437 15.6549C79.8525 15.8825 79.5395 16.192 79.3048 16.5832C79.07 16.9744 78.9527 17.4084 78.9527 17.885V24.031H76.7333V8.02576H78.9527V14.4919C79.3226 14.0508 79.7778 13.7023 80.3184 13.4462C80.8591 13.1901 81.4424 13.0621 82.0683 13.0621C82.8579 13.0621 83.5764 13.2541 84.2237 13.6382C84.871 14.0224 85.3832 14.5381 85.7602 15.1854C86.1443 15.8327 86.3364 16.5512 86.3364 17.3408Z" fill="white"/>
<path d="M88.0394 13.3608H90.2588V24.031H88.0394V13.3608ZM89.1705 11.8137C88.829 11.8137 88.5445 11.7034 88.3169 11.4829C88.0892 11.2624 87.9754 10.9849 87.9754 10.6506C87.9754 10.3234 88.0892 10.0495 88.3169 9.82901C88.5445 9.60138 88.8255 9.48757 89.1598 9.48757C89.487 9.48757 89.7645 9.60138 89.9921 9.82901C90.2197 10.0495 90.3335 10.3234 90.3335 10.6506C90.3335 10.9849 90.2197 11.2624 89.9921 11.4829C89.7716 11.7034 89.4977 11.8137 89.1705 11.8137Z" fill="white"/>
<path d="M100.499 13.3608H102.718V24.031H100.488L100.403 22.4838C100.09 23.0315 99.6665 23.4725 99.133 23.8069C98.5995 24.1412 97.97 24.3084 97.2444 24.3084C96.4619 24.3084 95.7257 24.1625 95.0357 23.8709C94.3457 23.5721 93.7375 23.1596 93.2111 22.6332C92.6918 22.1068 92.2864 21.5021 91.9947 20.8192C91.7031 20.1292 91.5573 19.3894 91.5573 18.5999C91.5573 17.8387 91.6995 17.1238 91.9841 16.4552C92.2686 15.7794 92.6634 15.189 93.1684 14.6839C93.6735 14.1789 94.2568 13.7841 94.9183 13.4995C95.587 13.2079 96.3019 13.0621 97.063 13.0621C97.8384 13.0621 98.5213 13.2399 99.1117 13.5956C99.7092 13.9441 100.204 14.3923 100.595 14.94L100.499 13.3608ZM97.1911 22.1637C97.8171 22.1637 98.3648 22.0107 98.8343 21.7049C99.3038 21.3919 99.6665 20.9722 99.9226 20.4458C100.186 19.9194 100.317 19.3361 100.317 18.6959C100.317 18.0486 100.186 17.4617 99.9226 16.9353C99.6594 16.4089 99.2931 15.9928 98.8236 15.6869C98.3612 15.3739 97.8171 15.2174 97.1911 15.2174C96.5722 15.2174 96.0067 15.3739 95.4945 15.6869C94.9824 15.9999 94.5769 16.4196 94.2781 16.946C93.9794 17.4724 93.83 18.0557 93.83 18.6959C93.83 19.3432 93.9829 19.9301 94.2888 20.4565C94.6018 20.9757 95.0108 21.3919 95.5159 21.7049C96.028 22.0107 96.5864 22.1637 97.1911 22.1637Z" fill="white"/>
<path d="M107.622 24.2337C107.06 24.1981 106.512 24.0843 105.978 23.8922C105.445 23.7002 104.975 23.4405 104.57 23.1133C104.172 22.779 103.873 22.3878 103.674 21.9396L105.562 21.1287C105.655 21.3207 105.815 21.5092 106.042 21.6942C106.277 21.8791 106.551 22.0321 106.864 22.153C107.177 22.2668 107.504 22.3237 107.846 22.3237C108.18 22.3237 108.489 22.2775 108.774 22.185C109.066 22.0854 109.304 21.936 109.489 21.7369C109.674 21.5377 109.766 21.2994 109.766 21.022C109.766 20.709 109.66 20.4671 109.446 20.2964C109.24 20.1186 108.98 19.9834 108.667 19.8909C108.354 19.7985 108.041 19.7095 107.728 19.6242C107.031 19.4677 106.391 19.2543 105.808 18.984C105.232 18.7066 104.773 18.3544 104.431 17.9276C104.09 17.4937 103.919 16.9638 103.919 16.3378C103.919 15.6549 104.104 15.0645 104.474 14.5665C104.844 14.0615 105.328 13.6738 105.925 13.4035C106.53 13.1332 107.173 12.998 107.856 12.998C108.71 12.998 109.492 13.1794 110.204 13.5422C110.915 13.905 111.459 14.4029 111.836 15.036L110.076 16.0817C109.969 15.8683 109.809 15.6762 109.596 15.5055C109.382 15.3348 109.14 15.1996 108.87 15.1001C108.6 14.9934 108.319 14.9329 108.027 14.9187C107.664 14.9044 107.326 14.9471 107.013 15.0467C106.708 15.1392 106.462 15.2886 106.277 15.4948C106.092 15.7011 106 15.9643 106 16.2844C106 16.5974 106.11 16.8322 106.331 16.9887C106.551 17.138 106.828 17.259 107.163 17.3514C107.504 17.4439 107.853 17.5471 108.208 17.6609C108.842 17.8601 109.436 18.1055 109.99 18.3971C110.545 18.6817 110.993 19.0338 111.335 19.4535C111.676 19.8732 111.84 20.3853 111.826 20.99C111.826 21.6586 111.623 22.2455 111.217 22.7505C110.819 23.2556 110.3 23.6397 109.66 23.9029C109.019 24.1661 108.34 24.2764 107.622 24.2337Z" fill="white"/>
<defs>
<linearGradient id="paint0_linear_179_285" x1="29.2589" y1="5.00456" x2="19.9781" y2="10.6453" gradientUnits="userSpaceOnUse">
<stop stop-color="#FFF963"/>
<stop offset="1" stop-color="#FFD800"/>
</linearGradient>
<linearGradient id="paint1_linear_179_285" x1="16.251" y1="1.06166" x2="-8.22089" y2="20.176" gradientUnits="userSpaceOnUse">
<stop stop-color="#FFF963"/>
<stop offset="1" stop-color="#FFD800"/>
</linearGradient>
<linearGradient id="paint2_linear_179_285" x1="22.2589" y1="14.1787" x2="20.326" y2="34.0363" gradientUnits="userSpaceOnUse">
<stop stop-color="#FFF963"/>
<stop offset="1" stop-color="#FFD800"/>
</linearGradient>
<linearGradient id="paint3_linear_179_285" x1="16.9795" y1="13.3745" x2="16.9846" y2="13.3745" gradientUnits="userSpaceOnUse">
<stop stop-color="#71B522"/>
<stop offset="1" stop-color="#E0DE27"/>
</linearGradient>
</defs>
</svg>
