<svg width="17" height="14" viewBox="0 0 17 14" fill="none" xmlns="http://www.w3.org/2000/svg">
<path d="M16.7482 1.85408C16.1473 2.11946 15.513 2.28532 14.8454 2.38484C15.513 1.98677 16.0471 1.3565 16.2808 0.593534C15.6466 0.958429 14.9455 1.22381 14.1777 1.38967C13.5768 0.759396 12.7089 0.361328 11.7742 0.361328C9.97154 0.361328 8.50272 1.82091 8.50272 3.61221C8.50272 3.87759 8.5361 4.1098 8.60286 4.342C5.89889 4.20931 3.46197 2.91559 1.82623 0.925257C1.55917 1.42284 1.39226 1.9536 1.39226 2.5507C1.39226 3.67856 1.95976 4.67373 2.86109 5.27083C2.32697 5.23765 1.82623 5.10497 1.35888 4.87276V4.90593C1.35888 6.4982 2.49388 7.82509 3.99609 8.12364C3.72903 8.18999 3.42859 8.22316 3.12814 8.22316C2.92785 8.22316 2.69417 8.18999 2.49388 8.15682C2.92785 9.45053 4.12962 10.4125 5.56506 10.4125C4.43006 11.275 3.028 11.8058 1.49241 11.8058C1.22535 11.8058 0.958286 11.8058 0.724609 11.7726C2.19344 12.7014 3.89594 13.2322 5.76536 13.2322C11.8076 13.2322 15.1124 8.25633 15.1124 3.94393C15.1124 3.81125 15.1124 3.64538 15.1124 3.5127C15.7467 3.08146 16.3142 2.51753 16.7482 1.85408Z" fill="white"/>
</svg>
