<svg width="1778" height="500" viewBox="0 0 1778 500" fill="none" xmlns="http://www.w3.org/2000/svg">
<path d="M86.4614 435.189C86.9113 435.954 87.7762 437.918 88.1761 438.578C184.156 469.862 310.17 425.429 323.837 307.75C272.497 367.414 155.522 366.025 95.0346 318.929C78.1582 347.964 68.8201 401.891 86.4614 435.189Z" fill="#555555"/>
<path d="M446.381 407.233C526.099 310.483 520.865 160.954 425.315 69.7959C455.664 98.7461 446.381 226.006 379.27 281.013C379.27 281.013 421.946 299.244 446.381 407.233Z" fill="black"/>
<path d="M345.805 19.4721C352.933 89.1264 313.782 202.993 236.958 220.869C227.93 222.968 219.741 225.267 209.963 227.516C207.149 228.16 204.085 229.015 201.2 229.245L199.201 229.375C189.308 230.089 180.775 229.215 170.707 227.056C160.466 224.787 150.556 221.227 141.213 216.461C131.589 211.571 122.49 205.71 114.059 198.97C121.054 207.505 128.901 215.304 137.479 222.248C146.302 229.394 155.998 235.39 166.333 240.094C168.382 241.014 170.455 241.882 172.551 242.698C152.665 252.813 133.909 265.941 117.723 282.008C108.574 293.289 100.947 305.722 95.0375 318.989C79.5377 353.891 76.2961 393.006 85.8394 429.982C87.0692 434.76 87.989 438.218 88.174 438.618C-129.7 238.86 94.4577 -82.3858 345.805 19.4721ZM249.895 101.73C253.83 101.73 257.677 100.563 260.949 98.3779C264.22 96.1924 266.771 93.0861 268.276 89.4517C269.782 85.8173 270.176 81.8181 269.409 77.9598C268.641 74.1016 266.746 70.5576 263.964 67.7759C261.181 64.9943 257.636 63.1 253.777 62.3325C249.917 61.5651 245.917 61.9589 242.281 63.4644C238.646 64.9698 235.538 67.5191 233.352 70.79C231.166 74.0608 229.999 77.9063 229.999 81.8402C230.006 87.1109 232.105 92.1636 235.835 95.8882C239.566 99.6129 244.623 101.705 249.895 101.705V101.73Z" fill="black"/>
<path d="M88.176 438.577C193.154 533.029 358.654 515.423 446.381 407.233C440.507 311.697 369.897 229.574 274.542 225.226C354.46 290.693 294.638 400.247 196.298 438.577C157.176 453.824 122.944 446.978 88.176 438.577Z" fill="black"/>
<path d="M735.346 89.3618H778.345L868.414 337.095H829.485L812.32 290.026H701.371L684.383 337.095H645.277L735.346 89.3618ZM714.996 253.22H798.695L756.757 138.201L714.996 253.22Z" fill="black"/>
<path d="M1049.57 226.146V337.095H1012.77V235.171C1012.77 227.267 1010.82 220.071 1006.93 213.583C1003.15 207.094 998.02 201.963 991.532 198.188C985.161 194.295 977.965 192.348 969.944 192.348C962.158 192.348 955.021 194.295 948.532 198.188C942.044 201.963 936.853 207.094 932.96 213.583C929.067 220.071 927.121 227.267 927.121 235.171V337.095H890.315V160.143H927.121V178.9C933.255 171.586 940.805 165.805 949.771 161.558C958.737 157.312 968.41 155.188 978.791 155.188C991.886 155.188 1003.8 158.373 1014.54 164.744C1025.27 171.114 1033.76 179.667 1040.02 190.402C1046.39 201.137 1049.57 213.052 1049.57 226.146Z" fill="black"/>
<path d="M1171.25 196.949H1134.09L1133.91 337.095H1097.1L1097.28 196.949H1069.14V160.143H1097.28L1097.1 104.58H1133.91L1134.09 160.143H1171.25V196.949Z" fill="black"/>
<path d="M1355.11 226.146V337.095H1318.3V235.171C1318.3 227.267 1316.35 220.071 1312.46 213.583C1308.69 207.094 1303.55 201.963 1297.07 198.188C1290.7 194.295 1283.5 192.348 1275.48 192.348C1267.69 192.348 1260.55 194.295 1254.07 198.188C1247.58 201.963 1242.39 207.094 1238.49 213.583C1234.6 220.071 1232.65 227.267 1232.65 235.171V337.095H1195.85V71.6665H1232.65V178.9C1238.79 171.586 1246.34 165.805 1255.3 161.558C1264.27 157.312 1273.94 155.188 1284.32 155.188C1297.42 155.188 1309.33 158.373 1320.07 164.744C1330.8 171.114 1339.3 179.667 1345.55 190.402C1351.92 201.137 1355.11 213.052 1355.11 226.146Z" fill="black"/>
<path d="M1383.35 160.143H1420.16V337.095H1383.35V160.143ZM1402.11 134.485C1396.44 134.485 1391.72 132.656 1387.95 128.999C1384.17 125.342 1382.29 120.741 1382.29 115.197C1382.29 109.77 1384.17 105.229 1387.95 101.572C1391.72 97.7965 1396.38 95.909 1401.93 95.909C1407.36 95.909 1411.96 97.7965 1415.73 101.572C1419.51 105.229 1421.39 109.77 1421.39 115.197C1421.39 120.741 1419.51 125.342 1415.73 128.999C1412.07 132.656 1407.53 134.485 1402.11 134.485Z" fill="black"/>
<path d="M1589.97 160.143H1626.78V337.095H1589.8L1588.38 311.437C1583.19 320.521 1576.17 327.835 1567.32 333.379C1558.48 338.924 1548.04 341.696 1536 341.696C1523.03 341.696 1510.82 339.278 1499.37 334.441C1487.93 329.487 1477.85 322.644 1469.12 313.915C1460.5 305.185 1453.78 295.158 1448.94 283.833C1444.11 272.39 1441.69 260.121 1441.69 247.027C1441.69 234.404 1444.05 222.548 1448.77 211.459C1453.49 200.252 1460.03 190.461 1468.41 182.085C1476.78 173.709 1486.46 167.162 1497.43 162.443C1508.52 157.607 1520.37 155.188 1533 155.188C1545.85 155.188 1557.18 158.137 1566.97 164.036C1576.88 169.816 1585.08 177.248 1591.57 186.332L1589.97 160.143ZM1535.12 306.129C1545.5 306.129 1554.58 303.592 1562.37 298.52C1570.16 293.329 1576.17 286.369 1580.42 277.639C1584.78 268.91 1586.97 259.236 1586.97 248.619C1586.97 237.884 1584.78 228.152 1580.42 219.422C1576.05 210.692 1569.98 203.791 1562.19 198.719C1554.53 193.528 1545.5 190.933 1535.12 190.933C1524.86 190.933 1515.48 193.528 1506.98 198.719C1498.49 203.909 1491.77 210.869 1486.81 219.599C1481.86 228.329 1479.38 238.002 1479.38 248.619C1479.38 259.354 1481.92 269.087 1486.99 277.816C1492.18 286.428 1498.96 293.329 1507.34 298.52C1515.83 303.592 1525.09 306.129 1535.12 306.129Z" fill="black"/>
<path d="M1708.1 340.458C1698.78 339.868 1689.7 337.98 1680.85 334.795C1672 331.61 1664.21 327.304 1657.49 321.878C1650.88 316.333 1645.93 309.845 1642.63 302.413L1673.95 288.964C1675.48 292.15 1678.13 295.276 1681.91 298.343C1685.8 301.41 1690.34 303.946 1695.54 305.952C1700.73 307.839 1706.15 308.783 1711.81 308.783C1717.36 308.783 1722.49 308.016 1727.21 306.483C1732.05 304.831 1736 302.354 1739.07 299.051C1742.13 295.748 1743.67 291.796 1743.67 287.195C1743.67 282.004 1741.9 277.993 1738.36 275.162C1734.94 272.213 1730.63 269.971 1725.44 268.438C1720.25 266.904 1715.06 265.43 1709.87 264.014C1698.31 261.419 1687.69 257.88 1678.02 253.397C1668.46 248.796 1660.85 242.957 1655.19 235.879C1649.53 228.682 1646.7 219.894 1646.7 209.513C1646.7 198.188 1649.76 188.396 1655.9 180.138C1662.03 171.763 1670.05 165.333 1679.96 160.851C1689.99 156.368 1700.67 154.126 1711.99 154.126C1726.15 154.126 1739.12 157.135 1750.92 163.151C1762.72 169.167 1771.74 177.425 1777.99 187.924L1748.8 205.266C1747.03 201.727 1744.37 198.542 1740.83 195.71C1737.3 192.879 1733.28 190.638 1728.8 188.986C1724.32 187.217 1719.66 186.214 1714.82 185.978C1708.81 185.742 1703.2 186.45 1698.01 188.101C1692.94 189.635 1688.87 192.112 1685.8 195.533C1682.74 198.954 1681.2 203.319 1681.2 208.628C1681.2 213.818 1683.03 217.711 1686.69 220.307C1690.34 222.784 1694.95 224.79 1700.49 226.323C1706.15 227.857 1711.93 229.567 1717.83 231.455C1728.33 234.758 1738.18 238.828 1747.38 243.664C1756.58 248.383 1764.02 254.223 1769.68 261.183C1775.34 268.143 1778.05 276.637 1777.82 286.664C1777.82 297.753 1774.46 307.485 1767.73 315.861C1761.13 324.237 1752.51 330.607 1741.9 334.972C1731.28 339.337 1720.01 341.165 1708.1 340.458Z" fill="black"/>
<path d="M1338.58 414.082V375.545H1351.6C1353.47 375.545 1355.17 375.931 1356.69 376.701C1358.23 377.454 1359.45 378.564 1360.35 380.032C1361.27 381.482 1361.73 383.243 1361.73 385.317C1361.73 386.491 1361.52 387.611 1361.1 388.675C1360.67 389.739 1360.12 390.648 1359.44 391.4C1358.77 392.134 1358.03 392.611 1357.24 392.831C1358.38 393.125 1359.36 393.639 1360.19 394.373C1361.01 395.089 1361.69 395.942 1362.22 396.933C1362.76 397.905 1363.14 398.933 1363.38 400.016C1363.64 401.098 1363.77 402.163 1363.77 403.209C1363.77 405.374 1363.29 407.273 1362.33 408.907C1361.4 410.54 1360.14 411.815 1358.56 412.733C1356.99 413.632 1355.23 414.082 1353.31 414.082H1338.58ZM1342.43 410.641H1353C1354.34 410.641 1355.55 410.292 1356.64 409.595C1357.74 408.897 1358.61 407.943 1359.25 406.732C1359.91 405.521 1360.24 404.154 1360.24 402.631C1360.24 401.273 1359.91 399.997 1359.25 398.805C1358.61 397.593 1357.74 396.621 1356.64 395.887C1355.55 395.135 1354.34 394.758 1353 394.758H1342.43V410.641ZM1342.43 391.373H1351.27C1353.09 391.373 1354.64 390.85 1355.92 389.804C1357.22 388.739 1357.88 387.235 1357.88 385.289C1357.88 383.161 1357.22 381.583 1355.92 380.555C1354.64 379.509 1353.09 378.986 1351.27 378.986H1342.43V391.373ZM1403.37 375.545H1407.91L1394.92 396.63V414.082H1391.06V396.63L1378.1 375.545H1382.64L1392.99 392.419L1403.37 375.545ZM1461.57 414.797C1459.52 414.797 1457.53 414.476 1455.6 413.834C1453.69 413.192 1452.02 412.274 1450.59 411.081C1449.16 409.888 1448.15 408.466 1447.56 406.815L1451.17 405.466C1451.57 406.604 1452.31 407.585 1453.37 408.411C1454.45 409.219 1455.71 409.843 1457.14 410.283C1458.59 410.723 1460.07 410.944 1461.57 410.944C1463.34 410.944 1464.98 410.65 1466.5 410.063C1468.02 409.476 1469.25 408.659 1470.19 407.613C1471.13 406.549 1471.59 405.301 1471.59 403.869C1471.59 402.42 1471.11 401.227 1470.13 400.291C1469.16 399.355 1467.91 398.621 1466.36 398.089C1464.84 397.538 1463.24 397.116 1461.57 396.823C1458.95 396.364 1456.59 395.74 1454.5 394.951C1452.43 394.162 1450.78 393.052 1449.57 391.62C1448.36 390.171 1447.76 388.262 1447.76 385.895C1447.76 383.675 1448.4 381.748 1449.68 380.115C1450.97 378.481 1452.66 377.215 1454.75 376.316C1456.86 375.417 1459.13 374.967 1461.57 374.967C1463.57 374.967 1465.53 375.279 1467.44 375.903C1469.35 376.527 1471.02 377.435 1472.47 378.628C1473.94 379.821 1475 381.28 1475.64 383.005L1471.98 384.326C1471.58 383.17 1470.83 382.188 1469.75 381.381C1468.69 380.555 1467.44 379.931 1466.01 379.509C1464.57 379.069 1463.1 378.848 1461.57 378.848C1459.83 378.83 1458.2 379.124 1456.67 379.729C1455.17 380.316 1453.95 381.142 1453.01 382.206C1452.08 383.252 1451.61 384.482 1451.61 385.895C1451.61 387.547 1452.04 388.822 1452.9 389.721C1453.78 390.602 1454.98 391.263 1456.48 391.703C1457.99 392.143 1459.68 392.538 1461.57 392.887C1464.03 393.309 1466.32 393.969 1468.43 394.868C1470.54 395.749 1472.24 396.933 1473.52 398.419C1474.8 399.887 1475.45 401.704 1475.45 403.869C1475.45 406.071 1474.8 407.998 1473.52 409.65C1472.24 411.283 1470.54 412.549 1468.43 413.448C1466.34 414.348 1464.05 414.797 1461.57 414.797ZM1510.29 414.797C1507.69 414.797 1505.24 414.283 1502.94 413.256C1500.65 412.21 1498.63 410.778 1496.89 408.962C1495.16 407.127 1493.81 404.998 1492.81 402.576C1491.84 400.153 1491.36 397.566 1491.36 394.813C1491.36 392.061 1491.84 389.473 1492.81 387.051C1493.81 384.629 1495.16 382.509 1496.89 380.693C1498.63 378.857 1500.65 377.426 1502.94 376.398C1505.24 375.353 1507.69 374.83 1510.29 374.83C1513.41 374.83 1516.28 375.554 1518.91 377.004C1521.53 378.454 1523.71 380.381 1525.43 382.785L1522.02 384.629C1520.66 382.812 1518.94 381.372 1516.84 380.307C1514.77 379.224 1512.59 378.683 1510.29 378.683C1508.18 378.683 1506.21 379.114 1504.38 379.977C1502.56 380.821 1500.96 381.986 1499.59 383.473C1498.21 384.959 1497.14 386.675 1496.37 388.62C1495.59 390.565 1495.21 392.63 1495.21 394.813C1495.21 397.034 1495.59 399.117 1496.37 401.062C1497.15 403.007 1498.24 404.723 1499.61 406.209C1501.01 407.696 1502.61 408.861 1504.43 409.705C1506.27 410.531 1508.22 410.944 1510.29 410.944C1512.68 410.944 1514.89 410.402 1516.93 409.32C1518.98 408.219 1520.68 406.787 1522.02 405.025L1525.43 406.87C1523.71 409.274 1521.53 411.2 1518.91 412.65C1516.28 414.082 1513.41 414.797 1510.29 414.797ZM1542.12 414.082V375.545H1555.2C1557.25 375.545 1559.11 376.05 1560.76 377.059C1562.41 378.05 1563.72 379.399 1564.69 381.105C1565.67 382.794 1566.15 384.693 1566.15 386.803C1566.15 388.693 1565.77 390.409 1565 391.951C1564.22 393.492 1563.17 394.767 1561.83 395.777C1560.51 396.786 1559.01 397.456 1557.34 397.786L1566.76 414.082H1562.3L1553.02 398.089H1545.98V414.082H1542.12ZM1545.98 394.235H1554.87C1556.22 394.235 1557.46 393.905 1558.58 393.244C1559.72 392.565 1560.62 391.657 1561.28 390.519C1561.96 389.363 1562.3 388.06 1562.3 386.611C1562.3 385.161 1561.96 383.867 1561.28 382.729C1560.62 381.573 1559.72 380.665 1558.58 380.004C1557.46 379.325 1556.22 378.986 1554.87 378.986H1545.98V394.235ZM1584.58 414.082V375.545H1608.03V379.399H1588.44V391.51H1604.65V395.364H1588.44V410.228H1608.03V414.082H1584.58ZM1625.48 414.082V375.545H1648.94V379.399H1629.34V391.51H1645.55V395.364H1629.34V410.228H1648.94V414.082H1625.48ZM1666.39 414.082V375.545H1670.57L1690.91 407.117V375.545H1694.77V414.082H1690.61L1670.24 382.509V414.082H1666.39ZM1712.4 414.082V375.545H1716.25V410.228H1733.95V414.082H1712.4ZM1771.05 375.545H1775.6L1762.6 396.63V414.082H1758.75V396.63L1745.79 375.545H1750.33L1760.68 392.419L1771.05 375.545Z" fill="black"/>
</svg>
