<svg width="356" height="100" viewBox="0 0 356 100" fill="none" xmlns="http://www.w3.org/2000/svg">
<path d="M17.2923 87.0378C17.3823 87.1908 17.5552 87.5836 17.6352 87.7155C36.8312 93.9723 62.0339 85.0858 64.7673 61.5499C54.4995 73.4828 31.1044 73.2049 19.0069 63.7857C15.6316 69.5928 13.764 80.3782 17.2923 87.0378Z" fill="#E4C508"/>
<path d="M89.2761 81.4468C105.22 62.0967 104.173 32.191 85.0629 13.9594C91.1327 19.7494 89.2761 45.2014 75.8539 56.2027C75.8539 56.2027 84.3891 59.8489 89.2761 81.4468Z" fill="url(#paint0_linear_581_520)"/>
<path d="M69.1609 3.89441C70.5866 17.8253 62.7563 40.5986 47.3915 44.1738C45.5859 44.5936 43.9482 45.0534 41.9926 45.5031C41.4297 45.6321 40.8169 45.803 40.24 45.849L39.8401 45.8749C37.8615 46.0179 36.1548 45.843 34.1413 45.4112C32.0932 44.9575 30.111 44.2455 28.2425 43.2923C26.3177 42.3142 24.498 41.142 22.8116 39.7941C24.2107 41.501 25.7802 43.0609 27.4956 44.4497C29.2604 45.8788 31.1995 47.0781 33.2664 48.0189C33.6764 48.2028 34.0909 48.3763 34.5102 48.5396C30.533 50.5625 26.7818 53.1882 23.5445 56.4016C21.7148 58.6578 20.1894 61.1445 19.0074 63.7978C15.9075 70.7782 15.2592 78.6012 17.1678 85.9964C17.4138 86.9519 17.5977 87.6436 17.6347 87.7235C-25.9401 47.772 18.8915 -16.4772 69.1609 3.89441ZM49.9789 20.346C50.7659 20.346 51.5353 20.1127 52.1896 19.6756C52.844 19.2385 53.354 18.6172 53.6552 17.8903C53.9564 17.1635 54.0352 16.3636 53.8816 15.592C53.7281 14.8203 53.3491 14.1115 52.7926 13.5552C52.2361 12.9989 51.5271 12.62 50.7552 12.4665C49.9834 12.313 49.1833 12.3918 48.4562 12.6929C47.7291 12.994 47.1076 13.5038 46.6704 14.158C46.2332 14.8122 45.9998 15.5813 45.9998 16.368C46.0011 17.4222 46.4209 18.4327 47.167 19.1777C47.9131 19.9226 48.9245 20.341 49.9789 20.341V20.346Z" fill="url(#paint1_linear_581_520)"/>
<path d="M17.6351 87.7155C38.6307 106.606 71.7308 103.085 89.2761 81.4467C88.1014 62.3395 73.9793 45.9149 54.9083 45.0453C70.892 58.1387 58.9275 80.0494 39.2596 87.7155C31.4352 90.765 24.5887 89.3957 17.6351 87.7155Z" fill="url(#paint2_linear_581_520)"/>
<path d="M54.8043 44.5786L54.8023 44.5856L54.7953 44.5806L54.7893 44.5776H54.7933L54.8043 44.5786Z" fill="url(#paint3_linear_581_520)"/>
<path d="M147.069 17.8724H155.669L173.683 67.4191H165.897L162.464 58.0052H140.274L136.877 67.4191H129.055L147.069 17.8724ZM142.999 50.644H159.739L151.351 27.6402L142.999 50.644Z" fill="white"/>
<path d="M209.914 45.2292V67.4191H202.553V47.0342C202.553 45.4534 202.164 44.0142 201.385 42.7165C200.63 41.4189 199.604 40.3925 198.306 39.6375C197.032 38.859 195.593 38.4697 193.989 38.4697C192.432 38.4697 191.004 38.859 189.706 39.6375C188.409 40.3925 187.371 41.4189 186.592 42.7165C185.814 44.0142 185.424 45.4534 185.424 47.0342V67.4191H178.063V32.0286H185.424V35.78C186.651 34.3172 188.161 33.1611 189.954 32.3117C191.747 31.4623 193.682 31.0376 195.758 31.0376C198.377 31.0376 200.76 31.6747 202.907 32.9487C205.054 34.2228 206.753 35.9333 208.003 38.0804C209.277 40.2274 209.914 42.6103 209.914 45.2292Z" fill="white"/>
<path d="M234.249 39.3898H226.817L226.782 67.4191H219.421L219.456 39.3898H213.829V32.0286H219.456L219.421 20.916H226.782L226.817 32.0286H234.249V39.3898Z" fill="white"/>
<path d="M271.021 45.2292V67.4191H263.66V47.0342C263.66 45.4534 263.271 44.0142 262.492 42.7165C261.737 41.4189 260.711 40.3925 259.413 39.6375C258.139 38.859 256.7 38.4697 255.095 38.4697C253.538 38.4697 252.111 38.859 250.813 39.6375C249.516 40.3925 248.477 41.4189 247.699 42.7165C246.92 44.0142 246.531 45.4534 246.531 47.0342V67.4191H239.17V14.3333H246.531V35.78C247.758 34.3172 249.268 33.1611 251.061 32.3117C252.854 31.4623 254.789 31.0376 256.865 31.0376C259.484 31.0376 261.867 31.6747 264.014 32.9487C266.161 34.2228 267.86 35.9333 269.11 38.0804C270.384 40.2274 271.021 42.6103 271.021 45.2292Z" fill="white"/>
<path d="M276.67 32.0286H284.031V67.4191H276.67V32.0286ZM280.421 26.897C279.289 26.897 278.345 26.5312 277.59 25.7998C276.835 25.0684 276.458 24.1483 276.458 23.0394C276.458 21.9541 276.835 21.0457 277.59 20.3143C278.345 19.5593 279.277 19.1818 280.386 19.1818C281.471 19.1818 282.391 19.5593 283.146 20.3143C283.901 21.0457 284.279 21.9541 284.279 23.0394C284.279 24.1483 283.901 25.0684 283.146 25.7998C282.415 26.5312 281.507 26.897 280.421 26.897Z" fill="white"/>
<path d="M317.995 32.0286H325.356V67.4191H317.96L317.676 62.2875C316.638 64.1042 315.234 65.567 313.465 66.6759C311.695 67.7848 309.607 68.3393 307.201 68.3393C304.606 68.3393 302.164 67.8556 299.875 66.8883C297.586 65.8973 295.569 64.5289 293.823 62.783C292.101 61.037 290.756 59.0316 289.789 56.7666C288.821 54.478 288.338 52.0242 288.338 49.4053C288.338 46.8808 288.81 44.5096 289.753 42.2918C290.697 40.0504 292.007 38.0922 293.682 36.417C295.357 34.7419 297.291 33.4324 299.486 32.4887C301.704 31.5213 304.075 31.0376 306.599 31.0376C309.171 31.0376 311.436 31.6275 313.394 32.8072C315.376 33.9633 317.016 35.4497 318.313 37.2664L317.995 32.0286ZM307.024 61.2258C309.1 61.2258 310.917 60.7185 312.474 59.704C314.031 58.6659 315.234 57.2738 316.084 55.5279C316.957 53.782 317.393 51.8473 317.393 49.7238C317.393 47.5768 316.957 45.6303 316.084 43.8844C315.211 42.1385 313.996 40.7582 312.439 39.7437C310.905 38.7056 309.1 38.1865 307.024 38.1865C304.971 38.1865 303.096 38.7056 301.397 39.7437C299.698 40.7818 298.353 42.1739 297.362 43.9198C296.371 45.6657 295.876 47.6004 295.876 49.7238C295.876 51.8709 296.383 53.8174 297.398 55.5633C298.436 57.2856 299.792 58.6659 301.468 59.704C303.166 60.7185 305.018 61.2258 307.024 61.2258Z" fill="white"/>
<path d="M341.62 68.0915C339.756 67.9736 337.939 67.5961 336.17 66.959C334.4 66.322 332.843 65.4608 331.498 64.3755C330.177 63.2666 329.186 61.969 328.525 60.4826L334.789 57.7929C335.096 58.4299 335.627 59.0551 336.382 59.6686C337.161 60.282 338.069 60.7893 339.107 61.1904C340.145 61.5679 341.23 61.7566 342.363 61.7566C343.472 61.7566 344.498 61.6033 345.442 61.2966C346.409 60.9662 347.2 60.4708 347.813 59.8101C348.427 59.1495 348.733 58.3591 348.733 57.439C348.733 56.4009 348.379 55.5987 347.672 55.0324C346.987 54.4426 346.126 53.9943 345.088 53.6876C344.05 53.3809 343.012 53.0859 341.974 52.8028C339.661 52.2838 337.538 51.576 335.603 50.6794C333.692 49.7592 332.171 48.5914 331.038 47.1757C329.906 45.7365 329.339 43.9788 329.339 41.9025C329.339 39.6375 329.953 37.6793 331.18 36.0277C332.406 34.3526 334.011 33.0667 335.993 32.1701C337.998 31.2736 340.133 30.8253 342.398 30.8253C345.23 30.8253 347.825 31.4269 350.184 32.6302C352.544 33.8335 354.349 35.4851 355.599 37.5849L349.76 41.0532C349.406 40.3454 348.875 39.7083 348.167 39.1421C347.459 38.5758 346.657 38.1275 345.76 37.7972C344.864 37.4433 343.932 37.2428 342.965 37.1956C341.761 37.1484 340.641 37.29 339.603 37.6203C338.588 37.927 337.774 38.4225 337.161 39.1067C336.547 39.7909 336.24 40.6639 336.24 41.7256C336.24 42.7637 336.606 43.5423 337.338 44.0614C338.069 44.5568 338.989 44.9579 340.098 45.2646C341.23 45.5714 342.387 45.9135 343.566 46.291C345.666 46.9516 347.636 47.7656 349.476 48.7329C351.317 49.6767 352.803 50.8445 353.936 52.2366C355.068 53.6286 355.611 55.3273 355.564 57.3328C355.564 59.5506 354.891 61.4971 353.546 63.1722C352.225 64.8474 350.503 66.1215 348.379 66.9944C346.256 67.8674 344.003 68.2331 341.62 68.0915Z" fill="white"/>
<path d="M267.716 82.4164V74.7091H270.32C270.694 74.7091 271.034 74.7862 271.338 74.9403C271.647 75.0908 271.891 75.3129 272.071 75.6065C272.254 75.8964 272.346 76.2487 272.346 76.6635C272.346 76.8984 272.304 77.1222 272.219 77.3351C272.135 77.548 272.025 77.7296 271.889 77.8801C271.753 78.0269 271.606 78.1223 271.449 78.1664C271.676 78.2251 271.872 78.3279 272.038 78.4747C272.203 78.6178 272.339 78.7885 272.445 78.9867C272.551 79.1812 272.629 79.3867 272.676 79.6032C272.728 79.8198 272.753 80.0326 272.753 80.2418C272.753 80.6749 272.658 81.0548 272.467 81.3814C272.28 81.7081 272.028 81.9631 271.713 82.1466C271.397 82.3265 271.047 82.4164 270.661 82.4164H267.716ZM268.487 81.7282H270.601C270.869 81.7282 271.111 81.6585 271.327 81.5191C271.548 81.3796 271.722 81.1887 271.85 80.9465C271.983 80.7043 272.049 80.4309 272.049 80.1262C272.049 79.8546 271.983 79.5996 271.85 79.361C271.722 79.1188 271.548 78.9243 271.327 78.7775C271.111 78.627 270.869 78.5518 270.601 78.5518H268.487V81.7282ZM268.487 77.8746H270.254C270.617 77.8746 270.927 77.77 271.184 77.5608C271.445 77.3479 271.575 77.047 271.575 76.658C271.575 76.2322 271.445 75.9166 271.184 75.7111C270.927 75.5019 270.617 75.3973 270.254 75.3973H268.487V77.8746ZM280.674 74.7091H281.582L278.984 78.9261V82.4164H278.213V78.9261L275.62 74.7091H276.528L278.598 78.0838L280.674 74.7091ZM292.315 82.5595C291.904 82.5595 291.506 82.4953 291.12 82.3669C290.739 82.2384 290.405 82.0549 290.118 81.8163C289.832 81.5778 289.63 81.2933 289.513 80.963L290.234 80.6933C290.315 80.9208 290.461 81.1172 290.674 81.2823C290.891 81.4438 291.142 81.5686 291.429 81.6567C291.718 81.7448 292.014 81.7888 292.315 81.7888C292.667 81.7888 292.996 81.7301 293.3 81.6126C293.605 81.4952 293.851 81.3319 294.038 81.1227C294.225 80.9098 294.319 80.6602 294.319 80.374C294.319 80.084 294.222 79.8455 294.027 79.6583C293.832 79.4711 293.581 79.3243 293.273 79.2179C292.968 79.1078 292.649 79.0234 292.315 78.9646C291.79 78.8729 291.318 78.7481 290.9 78.5903C290.485 78.4325 290.157 78.2104 289.915 77.9242C289.672 77.6342 289.551 77.2525 289.551 76.7791C289.551 76.335 289.68 75.9496 289.937 75.623C290.194 75.2963 290.531 75.0431 290.95 74.8633C291.372 74.6834 291.827 74.5935 292.315 74.5935C292.715 74.5935 293.106 74.6559 293.487 74.7807C293.869 74.9055 294.205 75.0871 294.495 75.3257C294.789 75.5643 295 75.856 295.128 76.201L294.396 76.4653C294.315 76.2341 294.166 76.0377 293.95 75.8762C293.737 75.7111 293.487 75.5863 293.201 75.5019C292.915 75.4138 292.62 75.3697 292.315 75.3697C291.966 75.3661 291.64 75.4248 291.335 75.5459C291.034 75.6634 290.79 75.8285 290.603 76.0414C290.416 76.2506 290.322 76.4965 290.322 76.7791C290.322 77.1094 290.408 77.3645 290.581 77.5443C290.757 77.7205 290.995 77.8526 291.296 77.9407C291.597 78.0288 291.937 78.1077 292.315 78.1774C292.807 78.2618 293.264 78.3939 293.686 78.5738C294.108 78.7499 294.447 78.9867 294.704 79.2839C294.961 79.5776 295.089 79.9409 295.089 80.374C295.089 80.8144 294.961 81.1997 294.704 81.5301C294.447 81.8567 294.108 82.1099 293.686 82.2898C293.267 82.4696 292.81 82.5595 292.315 82.5595ZM302.059 82.5595C301.538 82.5595 301.048 82.4568 300.589 82.2512C300.13 82.042 299.726 81.7558 299.378 81.3924C299.033 81.0254 298.761 80.5997 298.563 80.1152C298.368 79.6308 298.271 79.1133 298.271 78.5628C298.271 78.0122 298.368 77.4948 298.563 77.0103C298.761 76.5258 299.033 76.1019 299.378 75.7386C299.726 75.3716 300.13 75.0853 300.589 74.8798C301.048 74.6706 301.538 74.566 302.059 74.566C302.683 74.566 303.257 74.711 303.782 75.0009C304.307 75.2908 304.742 75.6762 305.087 76.157L304.404 76.5258C304.132 76.1625 303.787 75.8744 303.369 75.6615C302.954 75.445 302.517 75.3367 302.059 75.3367C301.637 75.3367 301.242 75.423 300.875 75.5955C300.512 75.7643 300.192 75.9973 299.917 76.2946C299.642 76.5919 299.427 76.9351 299.273 77.3241C299.119 77.7131 299.042 78.126 299.042 78.5628C299.042 79.0068 299.119 79.4234 299.273 79.8124C299.431 80.2015 299.647 80.5446 299.923 80.8419C300.202 81.1392 300.523 81.3722 300.886 81.5411C301.253 81.7062 301.644 81.7888 302.059 81.7888C302.536 81.7888 302.978 81.6805 303.385 81.464C303.797 81.2438 304.136 80.9575 304.404 80.6052L305.087 80.974C304.742 81.4548 304.307 81.8402 303.782 82.1301C303.257 82.4164 302.683 82.5595 302.059 82.5595ZM308.424 82.4164V74.7091H311.039C311.45 74.7091 311.821 74.8101 312.151 75.0119C312.482 75.2101 312.744 75.4799 312.939 75.8212C313.133 76.1588 313.23 76.5387 313.23 76.9608C313.23 77.3388 313.153 77.6819 312.999 77.9902C312.845 78.2985 312.634 78.5536 312.366 78.7554C312.102 78.9573 311.803 79.0913 311.469 79.1573L313.352 82.4164H312.46L310.604 79.2179H309.195V82.4164H308.424ZM309.195 78.4472H310.973C311.245 78.4472 311.493 78.3811 311.716 78.249C311.944 78.1132 312.124 77.9315 312.256 77.704C312.392 77.4727 312.46 77.2122 312.46 76.9222C312.46 76.6323 312.392 76.3735 312.256 76.146C312.124 75.9148 311.944 75.7331 311.716 75.601C311.493 75.4652 311.245 75.3973 310.973 75.3973H309.195V78.4472ZM316.917 82.4164V74.7091H321.607V75.4799H317.687V77.9021H320.93V78.6729H317.687V81.6457H321.607V82.4164H316.917ZM325.097 82.4164V74.7091H329.787V75.4799H325.868V77.9021H329.11V78.6729H325.868V81.6457H329.787V82.4164H325.097ZM333.277 82.4164V74.7091H334.114L338.182 81.0236V74.7091H338.953V82.4164H338.122L334.048 76.1019V82.4164H333.277ZM342.479 82.4164V74.7091H343.25V81.6457H346.79V82.4164H342.479ZM354.211 74.7091H355.119L352.521 78.9261V82.4164H351.75V78.9261L349.157 74.7091H350.066L352.136 78.0838L354.211 74.7091Z" fill="white"/>
<defs>
<linearGradient id="paint0_linear_581_520" x1="94.4121" y1="16.6819" x2="63.9479" y2="34.6057" gradientUnits="userSpaceOnUse">
<stop stop-color="#FFF963"/>
<stop offset="1" stop-color="#FFD800"/>
</linearGradient>
<linearGradient id="paint1_linear_581_520" x1="52.4387" y1="3.53887" x2="-28.455" y2="64.7029" gradientUnits="userSpaceOnUse">
<stop stop-color="#FFF963"/>
<stop offset="1" stop-color="#FFD800"/>
</linearGradient>
<linearGradient id="paint2_linear_581_520" x1="71.8246" y1="47.2623" x2="65.1732" y2="113.413" gradientUnits="userSpaceOnUse">
<stop stop-color="#FFF963"/>
<stop offset="1" stop-color="#FFD800"/>
</linearGradient>
<linearGradient id="paint3_linear_581_520" x1="54.7893" y1="44.5816" x2="54.8063" y2="44.5816" gradientUnits="userSpaceOnUse">
<stop stop-color="#71B522"/>
<stop offset="1" stop-color="#E0DE27"/>
</linearGradient>
</defs>
</svg>
