<svg width="179" height="48" viewBox="0 0 179 48" fill="none" xmlns="http://www.w3.org/2000/svg">
<path d="M8.57456 41.7782C8.61917 41.8516 8.70494 42.0402 8.7446 42.1035C18.2629 45.1068 30.7597 40.8413 32.1151 29.544C27.0238 35.2718 15.4233 35.1384 9.42476 30.6172C7.75112 33.4046 6.82507 38.5816 8.57456 41.7782Z" fill="#FFDD0F"/>
<path d="M44.2675 39.0945C52.1732 29.8064 51.6541 15.4517 42.1784 6.7005C45.1881 9.47972 44.2675 21.6967 37.6121 26.9773C37.6121 26.9773 41.8443 28.7275 44.2675 39.0945Z" fill="url(#paint0_linear_140_2940)"/>
<path d="M34.2934 1.86932C35.0004 8.55614 31.1177 19.4873 23.499 21.2034C22.6037 21.4049 21.7917 21.6256 20.822 21.8415C20.5429 21.9034 20.239 21.9854 19.953 22.0075L19.7547 22.02C18.7736 22.0886 17.9273 22.0046 16.9289 21.7974C15.9133 21.5796 14.9305 21.2378 14.004 20.7803C13.0496 20.3108 12.1473 19.7482 11.3111 19.1011C12.0048 19.9205 12.783 20.6692 13.6337 21.3358C14.5087 22.0218 15.4702 22.5975 16.4951 23.049C16.6984 23.1373 16.9039 23.2206 17.1118 23.299C15.1397 24.27 13.2797 25.5303 11.6745 27.0728C10.7672 28.1557 10.0108 29.3493 9.42477 30.6229C7.88764 33.9735 7.56618 37.7286 8.51259 41.2783C8.63455 41.7369 8.72577 42.0689 8.74411 42.1073C-12.8625 22.9305 9.36726 -7.90904 34.2934 1.86932ZM24.782 9.76608C25.1723 9.76608 25.5537 9.65409 25.8782 9.44428C26.2027 9.23447 26.4556 8.93626 26.6049 8.58736C26.7542 8.23846 26.7933 7.85454 26.7172 7.48415C26.6411 7.11375 26.4531 6.77353 26.1772 6.50649C25.9013 6.23945 25.5497 6.0576 25.167 5.98392C24.7842 5.91025 24.3875 5.94806 24.027 6.09258C23.6664 6.2371 23.3583 6.48183 23.1415 6.79584C22.9247 7.10984 22.8089 7.47901 22.8089 7.85666C22.8096 8.36265 23.0178 8.8477 23.3877 9.20527C23.7577 9.56284 24.2592 9.76368 24.782 9.76368V9.76608Z" fill="url(#paint1_linear_140_2940)"/>
<path d="M8.74432 42.1035C19.155 51.1708 35.5677 49.4806 44.2676 39.0944C43.6851 29.923 36.6826 22.0392 27.2263 21.6218C35.1518 27.9066 29.2192 38.4237 19.4668 42.1035C15.5871 43.5672 12.1922 42.9099 8.74432 42.1035Z" fill="url(#paint2_linear_140_2940)"/>
<path d="M27.1743 21.3978L27.1733 21.4011L27.17 21.3987L27.1671 21.3973H27.169L27.1743 21.3978Z" fill="url(#paint3_linear_140_2940)"/>
<path d="M78.3444 14.5484H82.493L91.1827 38.4495H87.4268L85.7708 33.9083H75.0666L73.4276 38.4495H69.6547L78.3444 14.5484ZM76.3811 30.3573H84.4563L80.4102 19.2603L76.3811 30.3573Z" fill="white"/>
<path d="M108.661 27.7452V38.4495H105.11V28.6159C105.11 27.8533 104.922 27.1591 104.546 26.5331C104.182 25.9071 103.687 25.412 103.061 25.0478C102.446 24.6722 101.752 24.4844 100.978 24.4844C100.227 24.4844 99.5384 24.6722 98.9124 25.0478C98.2864 25.412 97.7857 25.9071 97.4101 26.5331C97.0345 27.1591 96.8467 27.8533 96.8467 28.6159V38.4495H93.2957V21.3773H96.8467V23.1869C97.4385 22.4813 98.1669 21.9236 99.0319 21.5139C99.8969 21.1041 100.83 20.8993 101.832 20.8993C103.095 20.8993 104.245 21.2066 105.28 21.8212C106.316 22.4358 107.136 23.2609 107.739 24.2966C108.353 25.3324 108.661 26.4819 108.661 27.7452Z" fill="white"/>
<path d="M120.4 24.9283H116.814L116.797 38.4495H113.246L113.263 24.9283H110.549V21.3773H113.263L113.246 16.0166H116.797L116.814 21.3773H120.4V24.9283Z" fill="white"/>
<path d="M138.138 27.7452V38.4495H134.587V28.6159C134.587 27.8533 134.399 27.1591 134.024 26.5331C133.66 25.9071 133.165 25.412 132.539 25.0478C131.924 24.6722 131.23 24.4844 130.456 24.4844C129.705 24.4844 129.016 24.6722 128.39 25.0478C127.764 25.412 127.263 25.9071 126.888 26.5331C126.512 27.1591 126.324 27.8533 126.324 28.6159V38.4495H122.773V12.8412H126.324V23.1869C126.916 22.4813 127.644 21.9236 128.509 21.5139C129.374 21.1041 130.308 20.8993 131.309 20.8993C132.573 20.8993 133.722 21.2066 134.758 21.8212C135.794 22.4358 136.613 23.2609 137.216 24.2966C137.831 25.3324 138.138 26.4819 138.138 27.7452Z" fill="white"/>
<path d="M140.863 21.3773H144.414V38.4495H140.863V21.3773ZM142.673 18.9018C142.126 18.9018 141.671 18.7254 141.307 18.3726C140.943 18.0198 140.761 17.5759 140.761 17.0409C140.761 16.5174 140.943 16.0792 141.307 15.7264C141.671 15.3622 142.121 15.1801 142.656 15.1801C143.179 15.1801 143.623 15.3622 143.987 15.7264C144.352 16.0792 144.534 16.5174 144.534 17.0409C144.534 17.5759 144.352 18.0198 143.987 18.3726C143.634 18.7254 143.196 18.9018 142.673 18.9018Z" fill="white"/>
<path d="M160.798 21.3773H164.349V38.4495H160.781L160.644 35.974C160.144 36.8504 159.466 37.556 158.613 38.091C157.759 38.6259 156.752 38.8934 155.591 38.8934C154.339 38.8934 153.161 38.6601 152.057 38.1934C150.953 37.7154 149.98 37.0553 149.138 36.213C148.307 35.3708 147.658 34.4034 147.192 33.3108C146.725 32.2068 146.492 31.0231 146.492 29.7597C146.492 28.5419 146.719 27.3981 147.174 26.3282C147.63 25.247 148.261 24.3023 149.069 23.4942C149.878 22.6862 150.811 22.0545 151.869 21.5992C152.939 21.1326 154.083 20.8993 155.301 20.8993C156.541 20.8993 157.634 21.1838 158.579 21.7529C159.535 22.3106 160.326 23.0276 160.952 23.904L160.798 21.3773ZM155.506 35.4619C156.507 35.4619 157.384 35.2172 158.135 34.7278C158.886 34.227 159.466 33.5555 159.876 32.7132C160.297 31.871 160.508 30.9377 160.508 29.9134C160.508 28.8777 160.297 27.9387 159.876 27.0965C159.455 26.2542 158.869 25.5884 158.118 25.099C157.378 24.5982 156.507 24.3479 155.506 24.3479C154.516 24.3479 153.611 24.5982 152.791 25.099C151.972 25.5998 151.323 26.2713 150.845 27.1136C150.367 27.9558 150.128 28.8891 150.128 29.9134C150.128 30.9491 150.373 31.8881 150.862 32.7303C151.363 33.5612 152.017 34.227 152.825 34.7278C153.645 35.2172 154.538 35.4619 155.506 35.4619Z" fill="white"/>
<path d="M172.195 38.7739C171.295 38.717 170.419 38.5349 169.565 38.2276C168.712 37.9203 167.961 37.5048 167.312 36.9813C166.675 36.4464 166.197 35.8204 165.878 35.1033L168.9 33.8059C169.048 34.1132 169.304 34.4148 169.668 34.7107C170.043 35.0066 170.482 35.2513 170.982 35.4448C171.483 35.6269 172.007 35.7179 172.553 35.7179C173.088 35.7179 173.583 35.644 174.038 35.496C174.505 35.3367 174.886 35.0977 175.182 34.779C175.478 34.4603 175.626 34.079 175.626 33.6351C175.626 33.1343 175.455 32.7474 175.114 32.4742C174.784 32.1897 174.368 31.9734 173.868 31.8255C173.367 31.6775 172.866 31.5353 172.365 31.3987C171.25 31.1483 170.226 30.8068 169.292 30.3743C168.37 29.9305 167.636 29.3671 167.09 28.6842C166.544 27.9899 166.271 27.142 166.271 26.1404C166.271 25.0478 166.566 24.1032 167.158 23.3064C167.75 22.4984 168.524 21.8781 169.48 21.4456C170.448 21.0131 171.478 20.7968 172.57 20.7968C173.936 20.7968 175.188 21.0871 176.326 21.6675C177.464 22.248 178.335 23.0447 178.938 24.0576L176.121 25.7307C175.95 25.3893 175.694 25.082 175.353 24.8088C175.011 24.5356 174.625 24.3194 174.192 24.1601C173.76 23.9893 173.31 23.8926 172.843 23.8698C172.263 23.8471 171.722 23.9154 171.221 24.0747C170.732 24.2227 170.339 24.4617 170.043 24.7917C169.748 25.1218 169.6 25.5429 169.6 26.0551C169.6 26.5559 169.776 26.9314 170.129 27.1818C170.482 27.4209 170.926 27.6143 171.46 27.7623C172.007 27.9103 172.564 28.0753 173.134 28.2574C174.146 28.5761 175.097 28.9687 175.985 29.4354C176.872 29.8906 177.589 30.454 178.136 31.1255C178.682 31.797 178.944 32.6165 178.921 33.5839C178.921 34.6538 178.597 35.5927 177.948 36.4008C177.311 37.2089 176.48 37.8235 175.455 38.2446C174.431 38.6657 173.344 38.8422 172.195 38.7739Z" fill="white"/>
<defs>
<linearGradient id="paint0_linear_140_2940" x1="46.8142" y1="8.00731" x2="31.9649" y2="17.0325" gradientUnits="userSpaceOnUse">
<stop stop-color="#FFF963"/>
<stop offset="1" stop-color="#FFD800"/>
</linearGradient>
<linearGradient id="paint1_linear_140_2940" x1="26.0017" y1="1.69866" x2="-13.1533" y2="32.2816" gradientUnits="userSpaceOnUse">
<stop stop-color="#FFF963"/>
<stop offset="1" stop-color="#FFD800"/>
</linearGradient>
<linearGradient id="paint2_linear_140_2940" x1="35.6142" y1="22.6859" x2="32.5217" y2="54.4581" gradientUnits="userSpaceOnUse">
<stop stop-color="#FFF963"/>
<stop offset="1" stop-color="#FFD800"/>
</linearGradient>
<linearGradient id="paint3_linear_140_2940" x1="27.1671" y1="21.3992" x2="27.1752" y2="21.3992" gradientUnits="userSpaceOnUse">
<stop stop-color="#71B522"/>
<stop offset="1" stop-color="#E0DE27"/>
</linearGradient>
</defs>
</svg>
