<svg width="20" height="19" viewBox="0 0 20 19" fill="none" xmlns="http://www.w3.org/2000/svg">
<path fill-rule="evenodd" clip-rule="evenodd" d="M9.8218 0.692871C4.67234 0.692871 0.529541 4.80959 0.529541 9.92664C0.529541 14.0049 3.20107 17.4675 6.87925 18.6987C7.34387 18.7757 7.49874 18.5063 7.49874 18.237C7.49874 18.0062 7.49874 17.4291 7.49874 16.6596C4.90465 17.2367 4.3626 15.4284 4.3626 15.4284C3.9367 14.3512 3.31722 14.0818 3.31722 14.0818C2.46543 13.5047 3.39466 13.5047 3.39466 13.5047C4.32388 13.5817 4.82721 14.4666 4.82721 14.4666C5.64029 15.8901 6.99541 15.4669 7.53746 15.2361C7.61489 14.6205 7.8472 14.2357 8.11822 14.0049C6.06618 13.774 3.89799 12.9661 3.89799 9.42647C3.89799 8.42615 4.24645 7.57972 4.86593 6.96414C4.78849 6.73329 4.44003 5.80992 4.94337 4.5018C4.94337 4.5018 5.71772 4.27096 7.49874 5.46365C8.23438 5.27128 9.04745 5.15586 9.8218 5.15586C10.5962 5.15586 11.4092 5.27128 12.1449 5.46365C13.9259 4.27096 14.7002 4.5018 14.7002 4.5018C15.2036 5.77144 14.8938 6.69482 14.7777 6.96414C15.3584 7.6182 15.7456 8.42615 15.7456 9.42647C15.7456 12.9661 13.5774 13.7356 11.4867 13.9664C11.8351 14.2357 12.1062 14.8128 12.1062 15.6593C12.1062 16.8904 12.1062 17.8908 12.1062 18.1986C12.1062 18.4294 12.261 18.7372 12.7644 18.6602C16.4425 17.4675 19.1141 14.0049 19.1141 9.92664C19.1141 4.80959 14.9713 0.692871 9.8218 0.692871Z" fill="white"/>
</svg>
