<svg width="53" height="53" viewBox="0 0 53 53" fill="none" xmlns="http://www.w3.org/2000/svg">
<path d="M26.5 2.20837C20.1256 2.14359 13.9862 4.61237 9.43124 9.07214C4.87623 13.5319 2.27829 19.6177 2.20837 25.9921C2.23294 31.0297 3.85346 35.9299 6.83718 39.9889C9.8209 44.0478 14.0143 47.0567 18.815 48.5834C20.0296 48.8042 20.4713 48.0754 20.4713 47.435C20.4713 46.7946 20.4713 45.3813 20.4713 43.3938C13.7138 44.8292 12.2784 40.2138 12.2784 40.2138C11.8285 38.7649 10.8722 37.5263 9.58421 36.7246C7.37587 35.2671 9.76087 35.2892 9.76087 35.2892C10.5242 35.3912 11.2545 35.6648 11.897 36.0893C12.5395 36.5138 13.0776 37.0783 13.4709 37.7404C14.1562 38.9288 15.2807 39.8006 16.6023 40.1682C17.924 40.5357 19.3371 40.3697 20.5375 39.7059C20.661 38.4965 21.2086 37.37 22.0834 36.5259C16.695 35.9296 11.0417 33.8979 11.0417 24.7775C10.9935 22.3984 11.8726 20.0939 13.493 18.3513C12.755 16.3087 12.8421 14.059 13.7359 12.0796C13.7359 12.0796 15.7896 11.4392 20.3609 14.5088C24.3401 13.4484 28.5275 13.4484 32.5067 14.5088C37.1442 11.4392 39.1317 12.0796 39.1317 12.0796C40.0254 14.059 40.1126 16.3087 39.3746 18.3513C41.0326 20.062 41.9594 22.351 41.9584 24.7334C41.9584 33.8759 36.2609 35.8854 30.9167 36.4817C31.5019 37.0498 31.9539 37.7406 32.2403 38.5042C32.5266 39.2679 32.6403 40.0855 32.573 40.8984V47.4129C32.573 47.4129 33.0146 48.8042 34.2292 48.5613C39.0163 47.0252 43.1956 44.0156 46.1701 39.9623C49.1446 35.9091 50.7621 31.0196 50.7917 25.9921C50.7218 19.6177 48.1238 13.5319 43.5688 9.07214C39.0138 4.61237 32.8745 2.14359 26.5 2.20837Z" fill="white"/>
</svg>
