<svg width="16" height="17" viewBox="0 0 16 17" fill="none" xmlns="http://www.w3.org/2000/svg">
<path d="M7.43369 1.75476C7.60527 1.22669 8.35235 1.22669 8.52393 1.75476L9.67176 5.28742C9.88236 5.9356 10.4864 6.37445 11.1679 6.37445H14.8824C15.4376 6.37445 15.6685 7.08496 15.2193 7.41133L12.2142 9.59463C11.6629 9.99523 11.4321 10.7053 11.6427 11.3535L12.7906 14.8861C12.9622 15.4142 12.3578 15.8533 11.9086 15.527L8.90349 13.3437C8.35212 12.9431 7.6055 12.9431 7.05412 13.3437L4.04906 15.527C3.59986 15.8533 2.99546 15.4142 3.16704 14.8861L4.31487 11.3535C4.52548 10.7053 4.29476 9.99523 3.74339 9.59463L0.738327 7.41132C0.289125 7.08496 0.519984 6.37445 1.07523 6.37445H4.78969C5.47122 6.37445 6.07525 5.9356 6.28586 5.28742L7.43369 1.75476Z" fill="#FFE016" stroke="#FFE016"/>
</svg>
